<svg width="164" height="55" viewBox="0 0 164 55" fill="none" xmlns="http://www.w3.org/2000/svg">
<path d="M19.0238 48.0924C14.1694 48.0924 10.2334 44.1824 10.2334 39.3602C10.2334 34.5379 14.1694 30.6279 19.0238 30.6279C23.8782 30.6279 27.8142 34.5379 27.8142 39.3602C27.8142 44.1824 23.8782 48.0924 19.0238 48.0924ZM19.0238 34.1469C16.1374 34.1469 13.8414 36.4929 13.8414 39.295C13.8414 42.1623 16.203 44.4431 19.0238 44.4431C21.9102 44.4431 24.2062 42.0971 24.2062 39.295C24.2062 36.4929 21.9102 34.1469 19.0238 34.1469Z" fill="white"/>
<path d="M19.0241 23.7855C15.6129 23.7855 12.3329 24.8933 9.5777 26.9135C8.7905 27.5 8.6593 28.6078 9.2497 29.3898C9.8401 30.1718 10.9553 30.3021 11.7425 29.7156C13.8417 28.2168 16.4001 27.3696 19.0241 27.3696C25.6497 27.3696 31.0945 32.7132 31.0945 39.3602C31.0945 45.9419 25.7153 51.3507 19.0241 51.3507C12.3985 51.3507 6.9537 46.0071 6.9537 39.3602V38.2523H3.3457V39.3602C3.3457 47.9621 10.3649 54.9348 19.0241 54.9348C27.6833 54.9348 34.7025 47.9621 34.7025 39.3602C34.7025 30.7583 27.6833 23.7855 19.0241 23.7855Z" fill="white"/>
<path d="M2.1648 10.4265C3.0832 10.4265 3.8704 10.4917 4.5264 10.6872C5.1168 10.8827 5.6416 11.1433 6.0352 11.5343C6.4288 11.9253 6.6256 12.4467 6.8224 13.0331C6.9536 13.6196 7.0192 14.4016 7.0192 15.314V35.8412H3.3456V15.5746C3.3456 14.9881 3.2144 14.5971 3.0176 14.3365C2.8208 14.141 2.4272 14.0106 1.8368 14.0106H0V10.4265H2.1648Z" fill="white"/>
<path d="M42.1149 23.9159C41.1309 23.9159 40.3438 24.6979 40.3438 25.6754V53.2405C40.3438 54.1529 41.1309 55 42.1149 55C43.0989 55 43.9518 54.218 43.9518 53.2405V25.6102C43.9518 24.6327 43.1645 23.9159 42.1149 23.9159Z" fill="white"/>
<path d="M42.1149 14.0106C41.1965 14.0106 40.3438 14.7926 40.3438 15.7701V17.2037C40.3438 18.1812 41.1309 19.0284 42.1149 19.0284C43.0989 19.0284 43.9518 18.1812 43.9518 17.2037V15.7049C43.9518 14.7926 43.0989 14.0106 42.1149 14.0106Z" fill="white"/>
<path d="M62.3203 23.9811C58.7779 23.9811 55.4323 25.4147 53.0051 28.0214V25.7406C53.0051 24.7631 52.2179 23.9811 51.2995 23.9811C50.3155 23.9811 49.5283 24.7631 49.5283 25.7406V53.2406L49.5939 53.7619C49.5939 53.8271 49.5939 53.9574 49.6595 54.0877C49.8563 54.5439 50.3155 54.8697 50.9059 55H51.2995C51.8243 55 52.3491 54.7394 52.6115 54.3484C52.8739 54.0877 52.9395 53.8271 53.0051 53.5012V36.6233C53.1363 31.5403 57.2691 27.4349 62.3203 27.4349C67.4371 27.4349 71.5699 31.5403 71.5699 36.6233V53.1754C71.5699 54.1529 72.3571 54.9349 73.3411 54.9349C74.3251 54.9349 75.1123 54.1529 75.1123 53.1754V36.6233C75.0467 29.6505 69.3395 23.9811 62.3203 23.9811Z" fill="white"/>
<path d="M108.568 23.9158C107.584 23.9158 106.797 24.6978 106.797 25.6752V29.4549C104.042 26.0011 99.8435 23.9158 95.5139 23.9158C87.3795 23.9158 80.7539 30.8885 80.7539 39.4252C80.7539 47.962 87.3795 54.9347 95.5139 54.9347C99.8435 54.9347 103.976 52.8494 106.797 49.3305V53.1752C106.797 54.0876 107.584 54.9347 108.568 54.9347C109.552 54.9347 110.34 54.1527 110.34 53.1752V25.6101C110.34 24.6326 109.552 23.9158 108.568 23.9158ZM95.5795 27.3044C101.812 27.3044 106.863 32.7132 106.863 39.4252C106.863 46.0722 101.812 51.4809 95.5795 51.4809C89.3475 51.4809 84.2963 46.0722 84.2963 39.4252C84.2307 32.7132 89.3475 27.3044 95.5795 27.3044Z" fill="white"/>
<path d="M131.987 23.9809C125.361 23.9809 121.294 28.738 119.523 31.5402V25.6752C119.523 24.6978 118.736 23.9158 117.817 23.9158C116.768 23.9158 115.98 24.6326 115.98 25.6752V53.1752C115.98 54.1527 116.768 54.9347 117.817 54.9347C118.736 54.9347 119.523 54.1527 119.523 53.1752V39.7511C119.523 39.6207 119.523 39.5556 119.654 39.3601C120.179 37.8613 121.36 34.8636 123.328 32.3222C125.952 28.9987 128.707 27.4347 132.052 27.4347C132.971 27.4347 133.824 26.6527 133.824 25.6752C133.758 24.6978 132.971 23.9809 131.987 23.9809Z" fill="white"/>
<path d="M149.24 23.9158C141.106 23.9158 134.48 30.8885 134.48 39.4252C134.48 47.962 141.106 54.9347 149.24 54.9347C157.375 54.9347 164 47.962 164 39.4252C164 30.8234 157.375 23.9158 149.24 23.9158ZM149.24 51.4158C143.008 51.4158 137.957 46.007 137.957 39.3601C137.957 32.7132 143.008 27.2392 149.24 27.2392C155.472 27.2392 160.524 32.648 160.524 39.3601C160.524 46.007 155.472 51.4158 149.24 51.4158Z" fill="white"/>
<path d="M73.8301 16.2915H75.373V11.219H77.1547C79.8364 11.219 81.5446 9.81402 81.5446 7.36899C81.5446 4.92397 79.8364 3.51899 77.1547 3.51899H73.8301V16.2915ZM75.373 9.75928V4.97871H77.0628C78.8078 4.97871 80.0017 5.74506 80.0017 7.36899C80.0017 8.99293 78.8078 9.75928 77.0628 9.75928H75.373Z" fill="white"/>
<path d="M86.8038 7.64269C84.3057 7.64269 82.4322 9.59506 82.4322 12.0766C82.4322 14.5581 84.3057 16.5105 86.8038 16.5105C89.3018 16.5105 91.1754 14.5581 91.1754 12.0766C91.1754 9.59506 89.3018 7.64269 86.8038 7.64269ZM86.8038 15.0872C85.0955 15.0872 83.9751 13.737 83.9751 12.0766C83.9751 10.4161 85.0955 9.06591 86.8038 9.06591C88.512 9.06591 89.6324 10.4161 89.6324 12.0766C89.6324 13.737 88.512 15.0872 86.8038 15.0872Z" fill="white"/>
<path d="M91.5836 7.86165L95.4593 16.6564L98.2512 10.3249L101.043 16.6564L104.919 7.86165H103.339L101.08 13.3173L98.8206 7.86165H97.7736L95.5327 13.3173L93.2551 7.86165H91.5836Z" fill="white"/>
<path d="M109.573 7.64269C107.02 7.64269 105.33 9.61331 105.33 12.0766C105.33 14.5763 107.185 16.5105 109.756 16.5105C111.997 16.5105 113.283 14.85 113.283 14.85L112.31 13.8465C112.31 13.8465 111.428 15.0872 109.756 15.0872C108.158 15.0872 106.928 13.9012 106.836 12.624H113.687C113.706 12.4233 113.706 12.2955 113.706 12.1313C113.706 9.41259 111.942 7.64269 109.573 7.64269ZM106.873 11.3467C106.983 10.4709 107.736 9.06591 109.573 9.06591C111.281 9.06591 112.144 10.3979 112.199 11.3467H106.873Z" fill="white"/>
<path d="M119.079 7.64269C117.462 7.64269 116.709 9.15714 116.709 9.15714V7.86165H115.277V16.2915H116.82V10.4891C116.82 10.4891 117.426 9.06591 118.767 9.06591C119.409 9.06591 119.74 9.24838 119.74 9.24838L120.309 7.86165C120.309 7.86165 119.777 7.64269 119.079 7.64269Z" fill="white"/>
<path d="M124.703 7.64269C122.15 7.64269 120.46 9.61331 120.46 12.0766C120.46 14.5763 122.316 16.5105 124.887 16.5105C127.128 16.5105 128.414 14.85 128.414 14.85L127.44 13.8465C127.44 13.8465 126.559 15.0872 124.887 15.0872C123.289 15.0872 122.058 13.9012 121.967 12.624H128.818C128.836 12.4233 128.836 12.2955 128.836 12.1313C128.836 9.41259 127.073 7.64269 124.703 7.64269ZM122.003 11.3467C122.114 10.4709 122.867 9.06591 124.703 9.06591C126.412 9.06591 127.275 10.3979 127.33 11.3467H122.003Z" fill="white"/>
<path d="M133.934 7.64269C131.638 7.64269 129.819 9.59506 129.819 12.0766C129.819 14.5581 131.638 16.5105 133.934 16.5105C135.973 16.5105 136.799 15.069 136.799 15.069V16.2915H138.214V2.49719H136.671V8.90169C136.671 8.90169 135.807 7.64269 133.934 7.64269ZM136.671 13.6275C136.671 13.6275 135.863 15.0872 134.173 15.0872C132.446 15.0872 131.362 13.737 131.362 12.0766C131.362 10.4161 132.483 9.06591 134.173 9.06591C135.863 9.06591 136.671 10.5256 136.671 10.5256V13.6275Z" fill="white"/>
<path d="M150.292 7.64269C148.418 7.64269 147.555 8.90169 147.555 8.90169V2.49719H146.012V16.2915H147.426V15.069C147.426 15.069 148.253 16.5105 150.292 16.5105C152.588 16.5105 154.406 14.5581 154.406 12.0766C154.406 9.59506 152.588 7.64269 150.292 7.64269ZM147.555 10.5256C147.555 10.5256 148.363 9.06591 150.053 9.06591C151.743 9.06591 152.863 10.4161 152.863 12.0766C152.863 13.737 151.78 15.0872 150.053 15.0872C148.363 15.0872 147.555 13.6275 147.555 13.6275V10.5256Z" fill="white"/>
<path d="M155.312 20.105C155.312 20.105 156.065 20.7071 157.112 20.7071C158.012 20.7071 158.967 20.2327 159.463 19.0102C159.665 18.5176 163.926 7.86165 163.926 7.86165H162.255L159.72 14.5216L156.744 7.86165H154.999L158.967 16.328L158.306 17.9884C157.975 18.8095 157.663 19.2839 156.983 19.2839C156.505 19.2839 155.973 18.846 155.973 18.846L155.312 20.105Z" fill="white"/>
</svg>
