<svg width="29" height="28" viewBox="0 0 29 28" fill="none" xmlns="http://www.w3.org/2000/svg">
    <rect x="0.5" width="28" height="28" rx="14" fill="white"/>
    <path d="M17.3816 9.4385C17.0263 9.4385 16.6711 9.4385 16.3158 9.4385C15.8421 9.4385 15.5658 9.69519 15.5263 10.2086C15.4868 10.6364 15.5263 11.0214 15.5263 11.4492C15.5263 11.5775 15.6053 11.5775 15.6842 11.5775C16.2368 11.5775 16.7895 11.5775 17.3026 11.5775C17.4605 11.5775 17.5 11.6203 17.5 11.7914C17.4211 12.4759 17.3816 13.1604 17.3026 13.8449C17.3026 14.016 17.2237 14.016 17.1053 14.016C16.6711 14.016 16.2368 14.016 15.8026 14.016C15.4868 14.016 15.5263 13.9733 15.5263 14.3155C15.5263 16.4545 15.5263 18.5936 15.5263 20.7326C15.5263 20.9465 15.4868 21.0321 15.25 20.9893C14.5 20.9893 13.7895 20.9893 13.0395 20.9893C12.8421 20.9893 12.8026 20.9037 12.8026 20.7326C12.8026 19.6631 12.8026 18.5936 12.8026 17.4813C12.8026 16.369 12.8026 15.2995 12.8026 14.1872C12.8026 14.016 12.7632 13.9305 12.6053 13.9733C12.2895 13.9733 11.9737 13.9733 11.6579 13.9733C11.5395 13.9733 11.5 13.9305 11.5 13.8021C11.5 13.1176 11.5 12.4332 11.5 11.7487C11.5 11.6203 11.5395 11.5775 11.6579 11.5775C11.9737 11.5775 12.2895 11.5775 12.6053 11.5775C12.8026 11.5775 12.8421 11.5348 12.8421 11.3209C12.8421 10.8075 12.8421 10.2941 12.8421 9.78075C12.8421 9.13904 13 8.54011 13.3553 8.02674C13.7895 7.38503 14.4211 7.08556 15.1316 7.04278C15.8816 7 16.6316 7.04278 17.3816 7C17.5 7 17.5 7.04278 17.5 7.12834C17.5 7.81283 17.5 8.49733 17.5 9.18182C17.5 9.39572 17.5 9.4385 17.3816 9.4385Z" fill="black"/>
</svg>
