<?xml version="1.0" encoding="utf-8"?>
<!-- Generator: Adobe Illustrator 23.0.5, SVG Export Plug-In . SVG Version: 6.00 Build 0)  -->
<svg version="1.1" id="Layer_1" xmlns="http://www.w3.org/2000/svg" xmlns:xlink="http://www.w3.org/1999/xlink" x="0px" y="0px"
	 viewBox="0 0 69 69" style="enable-background:new 0 0 69 69;" xml:space="preserve">
<style type="text/css">
	.st0{fill:#FFFFFF;stroke:#FFFFFF;stroke-width:0.5;}
	.st1{fill:#FFFFFF;}
</style>
<path class="st0" d="M1.9,35.6c0.8,0,1.4-0.6,1.4-1.4c0-0.8-0.6-1.4-1.4-1.4c-0.8,0-1.4,0.6-1.4,1.4C0.5,35,1.1,35.6,1.9,35.6z"/>
<path class="st0" d="M2.4,41.4c0.8,0,1.4-0.6,1.4-1.4s-0.6-1.4-1.4-1.4c-0.8,0-1.4,0.6-1.4,1.4S1.7,41.4,2.4,41.4z"/>
<path class="st0" d="M3.8,46.9c0.8,0,1.4-0.6,1.4-1.4s-0.6-1.4-1.4-1.4c-0.8,0-1.4,0.6-1.4,1.4S3.1,46.9,3.8,46.9z"/>
<path class="st0" d="M6.4,52c0.8,0,1.4-0.6,1.4-1.4c0-0.8-0.6-1.4-1.4-1.4c-0.8,0-1.4,0.6-1.4,1.4C5,51.4,5.6,52,6.4,52z"/>
<path class="st0" d="M9.5,56.5c0.8,0,1.4-0.6,1.4-1.4s-0.6-1.4-1.4-1.4c-0.8,0-1.4,0.6-1.4,1.4S8.7,56.5,9.5,56.5z"/>
<path class="st0" d="M13.4,60.6c0.8,0,1.4-0.6,1.4-1.4c0-0.8-0.6-1.4-1.4-1.4c-0.8,0-1.4,0.6-1.4,1.4C12,60,12.6,60.6,13.4,60.6z"/>
<path class="st0" d="M18.3,63.9c0.8,0,1.4-0.6,1.4-1.4s-0.6-1.4-1.4-1.4c-0.8,0-1.4,0.6-1.4,1.4S17.5,63.9,18.3,63.9z"/>
<path class="st0" d="M23.4,66.3c0.8,0,1.4-0.6,1.4-1.4c0-0.8-0.6-1.4-1.4-1.4S22,64.1,22,64.9C22,65.6,22.6,66.3,23.4,66.3z"/>
<path class="st0" d="M28.8,67.8c0.8,0,1.4-0.6,1.4-1.4c0-0.8-0.6-1.4-1.4-1.4c-0.8,0-1.4,0.6-1.4,1.4C27.5,67.2,28.1,67.8,28.8,67.8
	z"/>
<path class="st0" d="M34.5,68.2c0.8,0,1.4-0.6,1.4-1.4s-0.6-1.4-1.4-1.4s-1.4,0.6-1.4,1.4S33.7,68.2,34.5,68.2z"/>
<path class="st0" d="M40.2,67.8c0.8,0,1.4-0.6,1.4-1.4c0-0.8-0.6-1.4-1.4-1.4c-0.8,0-1.4,0.6-1.4,1.4C38.8,67.2,39.4,67.8,40.2,67.8
	z"/>
<path class="st0" d="M45.6,66.3c0.8,0,1.4-0.6,1.4-1.4c0-0.8-0.6-1.4-1.4-1.4c-0.8,0-1.4,0.6-1.4,1.4C44.3,65.6,44.9,66.3,45.6,66.3
	z"/>
<path class="st0" d="M50.7,63.9c0.8,0,1.4-0.6,1.4-1.4s-0.6-1.4-1.4-1.4c-0.8,0-1.4,0.6-1.4,1.4S50,63.9,50.7,63.9z"/>
<path class="st0" d="M55.4,60.6c0.8,0,1.4-0.6,1.4-1.4c0-0.8-0.6-1.4-1.4-1.4c-0.8,0-1.4,0.6-1.4,1.4C54,60,54.7,60.6,55.4,60.6z"/>
<path class="st0" d="M59.5,56.5c0.8,0,1.4-0.6,1.4-1.4s-0.6-1.4-1.4-1.4c-0.8,0-1.4,0.6-1.4,1.4S58.8,56.5,59.5,56.5z"/>
<path class="st0" d="M62.6,52c0.8,0,1.4-0.6,1.4-1.4c0-0.8-0.6-1.4-1.4-1.4s-1.4,0.6-1.4,1.4C61.3,51.4,61.9,52,62.6,52z"/>
<path class="st0" d="M65,46.9c0.8,0,1.4-0.6,1.4-1.4s-0.6-1.4-1.4-1.4c-0.8,0-1.4,0.6-1.4,1.4S64.2,46.9,65,46.9z"/>
<path class="st0" d="M66.6,41.4c0.8,0,1.4-0.6,1.4-1.4s-0.6-1.4-1.4-1.4s-1.4,0.6-1.4,1.4S65.8,41.4,66.6,41.4z"/>
<path class="st0" d="M67.1,35.6c0.8,0,1.4-0.6,1.4-1.4c0-0.8-0.6-1.4-1.4-1.4c-0.8,0-1.4,0.6-1.4,1.4C65.8,35,66.4,35.6,67.1,35.6z"
	/>
<path class="st0" d="M66.6,30.1c0.8,0,1.4-0.6,1.4-1.4c0-0.8-0.6-1.4-1.4-1.4s-1.4,0.6-1.4,1.4C65.2,29.5,65.8,30.1,66.6,30.1z"/>
<path class="st0" d="M65,24.6c0.8,0,1.4-0.6,1.4-1.4s-0.6-1.4-1.4-1.4c-0.8,0-1.4,0.6-1.4,1.4S64.2,24.6,65,24.6z"/>
<path class="st0" d="M62.6,19.3c0.8,0,1.4-0.6,1.4-1.4c0-0.8-0.6-1.4-1.4-1.4s-1.4,0.6-1.4,1.4C61.3,18.7,61.9,19.3,62.6,19.3z"/>
<path class="st0" d="M59.5,14.6c0.8,0,1.4-0.6,1.4-1.4s-0.6-1.4-1.4-1.4c-0.8,0-1.4,0.6-1.4,1.4S58.8,14.6,59.5,14.6z"/>
<path class="st0" d="M55.4,10.7c0.8,0,1.4-0.6,1.4-1.4c0-0.8-0.6-1.4-1.4-1.4C54.7,8,54,8.6,54,9.4C54,10.1,54.7,10.7,55.4,10.7z"/>
<path class="st0" d="M50.7,7.4c0.8,0,1.4-0.6,1.4-1.4c0-0.8-0.6-1.4-1.4-1.4c-0.8,0-1.4,0.6-1.4,1.4C49.4,6.8,50,7.4,50.7,7.4z"/>
<path class="st0" d="M45.6,4.9c0.8,0,1.4-0.6,1.4-1.4c0-0.8-0.6-1.4-1.4-1.4c-0.8,0-1.4,0.6-1.4,1.4C44.3,4.3,44.9,4.9,45.6,4.9z"/>
<path class="st0" d="M40.2,3.5c0.8,0,1.4-0.6,1.4-1.4c0-0.8-0.6-1.4-1.4-1.4c-0.8,0-1.4,0.6-1.4,1.4C38.8,2.9,39.4,3.5,40.2,3.5z"/>
<path class="st0" d="M34.5,3.1c0.8,0,1.4-0.6,1.4-1.4c0-0.8-0.6-1.4-1.4-1.4S33.1,1,33.1,1.8C33.1,2.5,33.7,3.1,34.5,3.1z"/>
<path class="st0" d="M28.8,3.5c0.8,0,1.4-0.6,1.4-1.4c0-0.8-0.6-1.4-1.4-1.4c-0.8,0-1.4,0.6-1.4,1.4C27.5,2.9,28.1,3.5,28.8,3.5z"/>
<path class="st0" d="M23.4,4.9c0.8,0,1.4-0.6,1.4-1.4c0-0.8-0.6-1.4-1.4-1.4S22,2.8,22,3.5C22,4.3,22.6,4.9,23.4,4.9z"/>
<path class="st0" d="M18.3,7.4c0.8,0,1.4-0.6,1.4-1.4c0-0.8-0.6-1.4-1.4-1.4c-0.8,0-1.4,0.6-1.4,1.4C16.9,6.8,17.5,7.4,18.3,7.4z"/>
<path class="st0" d="M13.4,10.7c0.8,0,1.4-0.6,1.4-1.4c0-0.8-0.6-1.4-1.4-1.4C12.6,8,12,8.6,12,9.4C12,10.1,12.6,10.7,13.4,10.7z"/>
<path class="st0" d="M9.5,14.6c0.8,0,1.4-0.6,1.4-1.4s-0.6-1.4-1.4-1.4c-0.8,0-1.4,0.6-1.4,1.4S8.7,14.6,9.5,14.6z"/>
<path class="st0" d="M6.4,19.3c0.8,0,1.4-0.6,1.4-1.4c0-0.8-0.6-1.4-1.4-1.4C5.6,16.6,5,17.2,5,18C5,18.7,5.6,19.3,6.4,19.3z"/>
<path class="st0" d="M3.8,24.6c0.8,0,1.4-0.6,1.4-1.4s-0.6-1.4-1.4-1.4c-0.8,0-1.4,0.6-1.4,1.4S3.1,24.6,3.8,24.6z"/>
<path class="st0" d="M2.4,30.1c0.8,0,1.4-0.6,1.4-1.4c0-0.8-0.6-1.4-1.4-1.4c-0.8,0-1.4,0.6-1.4,1.4C1.1,29.5,1.7,30.1,2.4,30.1z"/>
<g>
	<path class="st1" d="M54.6,24.3c-2-1.9-4.5-2.9-7.2-2.8c-5.7,0-10.4,4.7-10.4,10.4c0,0.4,0,0.9,0.1,1.3c0.7,0.2,1.5,0.4,2.1,0.8
		c-0.1-0.7-0.2-1.4-0.2-2.1c0-4.6,3.8-8.4,8.4-8.4c0.1,0,0.2,0,0.3,0c2,0,3.9,0.8,5.4,2.2c1.7,1.6,2.6,3.8,2.6,6.1
		c0,6.4-6.4,11.9-8.4,13.4c-0.5-0.4-1.4-1.1-2.3-2c0,0.8-0.1,1.7-0.3,2.5c1.1,1,1.9,1.5,2,1.6l0.6,0.4l0.6-0.4
		c0.4-0.3,9.8-6.8,9.8-15.5C57.8,29,56.6,26.2,54.6,24.3z"/>
	<path class="st1" d="M45.1,43.3C45.1,43.2,45.1,43.2,45.1,43.3c0-4.1-2.4-7.6-5.8-9.3c-0.7-0.3-1.4-0.6-2.1-0.8
		c-0.8-0.2-1.7-0.3-2.6-0.3c-5.7,0-10.4,4.7-10.4,10.4c0,8.6,9.6,15.2,10,15.5l0.6,0.4l0.6-0.4c0.4-0.2,8-5.6,9.5-13
		C45,44.9,45.1,44.1,45.1,43.3z M26.1,43.2c0-4.6,3.8-8.4,8.4-8.4c4.6,0,8.6,3.8,8.6,8.4c0,6.5-6.4,11.9-8.4,13.4
		C32.7,55.1,26.1,49.7,26.1,43.2z"/>
	<path class="st1" d="M33.2,22.7c0-5.7-4.7-10.4-10.4-10.4s-10.4,4.7-10.4,10.4c0,8.6,9.4,15.2,9.8,15.5l0.6,0.4l0.6-0.4
		C23.7,37.9,33.2,31.3,33.2,22.7z M22.8,36.1c-2-1.5-8.4-7-8.4-13.4c0-4.6,3.8-8.4,8.4-8.4s8.4,3.8,8.4,8.4
		C31.2,29.1,24.7,34.6,22.8,36.1z"/>
	<path class="st1" d="M47.2,35.4c1.2,0,2.1-1,2.1-2.2s-1-2.2-2.1-2.2c-1.2,0-2.2,1-2.2,2.2S46,35.4,47.2,35.4z"/>
	<path class="st1" d="M34.5,42.4c-1.2,0-2.1,1-2.1,2.2c0,1.2,1,2.1,2.1,2.1c1.2,0,2.2-1,2.2-2.1C36.6,43.4,35.7,42.4,34.5,42.4z"/>
	<path class="st1" d="M22.6,21.7c-1.2,0-2.1,1-2.1,2.2c0,1.2,1,2.2,2.1,2.2c1.2,0,2.2-1,2.2-2.2C24.7,22.6,23.8,21.7,22.6,21.7z"/>
</g>
</svg>
