<?xml version="1.0" encoding="utf-8"?>
<!-- Generator: Adobe Illustrator 23.0.5, SVG Export Plug-In . SVG Version: 6.00 Build 0)  -->
<svg version="1.1" id="Layer_1" xmlns="http://www.w3.org/2000/svg" xmlns:xlink="http://www.w3.org/1999/xlink" x="0px" y="0px"
	 viewBox="0 0 58 60" style="enable-background:new 0 0 58 60;" xml:space="preserve">
<style type="text/css">
	.st0{fill:#FFFFFF;}
</style>
<g>
	<path class="st0" d="M44.5,11.6c-7.3,0-13,5.7-13,13c0,0.7,0,1.3,0.1,2c0.9,0.2,1.7,0.5,2.4,0.8c-0.2-0.9-0.3-1.9-0.3-2.8
		c0-6.1,4.7-10.8,10.8-10.8c6,0,10.8,4.8,10.8,10.8c0,8.3-8.4,15.2-10.8,17c-0.6-0.5-1.7-1.4-3-2.5c0,0.1,0,0.1,0,0.2
		c0,0.9-0.1,1.8-0.2,2.6c1.4,1.2,2.5,1.9,2.6,2l0.6,0.4l0.6-0.4c0.5-0.3,12.4-8.5,12.4-19.3C57.6,17.5,51.7,11.6,44.5,11.6z"/>
	<path class="st0" d="M41.5,39.3c0-0.1,0-0.1,0-0.2c-0.1-5.2-3.1-9.6-7.5-11.6c-0.8-0.4-1.6-0.6-2.4-0.8c-1-0.2-2-0.4-3.1-0.4
		c-7.3,0-13,5.7-13,13c0,10.8,11.9,19,12.4,19.3l0.6,0.4l0.6-0.4c0.5-0.3,10.5-7.2,12.2-16.7C41.5,41.1,41.5,40.2,41.5,39.3z
		 M17.7,39.3c0-6.1,4.7-10.8,10.8-10.8s10.8,4.7,10.8,10.8c0,8.3-8.4,15.2-10.8,17C26.1,54.5,17.7,47.7,17.7,39.3z"/>
	<path class="st0" d="M26.5,13.1c0-7.2-5.9-13-13-13c-7.3,0-13,5.7-13,13c0,10.8,11.9,19,12.4,19.3l0.6,0.4l0.6-0.4
		C14.6,32.1,26.5,24,26.5,13.1z M2.7,13.1c0-6.1,4.7-10.8,10.8-10.8c6,0,10.8,4.8,10.8,10.8c0,8.3-8.4,15.2-10.8,17
		C11.1,28.3,2.7,21.5,2.7,13.1z"/>
	<path class="st0" d="M44.5,29.4c1.6,0,2.9-1.3,2.9-2.9s-1.3-2.9-2.9-2.9s-2.9,1.3-2.9,2.9S42.9,29.4,44.5,29.4z"/>
	<path class="st0" d="M28.5,38c-1.6,0-2.9,1.3-2.9,2.9s1.3,2.9,2.9,2.9s2.9-1.3,2.9-2.9S30.1,38,28.5,38z"/>
	<path class="st0" d="M13.4,12c-1.6,0-2.9,1.3-2.9,2.9s1.3,2.9,2.9,2.9s2.9-1.3,2.9-2.9S15.1,12,13.4,12z"/>
</g>
</svg>
