<svg width="29" height="28" viewBox="0 0 29 28" fill="none" xmlns="http://www.w3.org/2000/svg">
    <rect x="0.5" width="28" height="28" rx="14" fill="white"/>
    <path d="M22.4576 16.899C22.4576 17.6408 22.401 18.3826 22.2879 19.1244C22.005 20.6651 20.5908 21.8063 19.0634 21.8634C16.235 22.0346 13.35 22.0346 10.5215 21.9205C9.84268 21.9205 9.22042 21.8634 8.59816 21.521C7.29707 20.8363 6.67481 19.7521 6.61824 18.2685C6.5051 15.8148 6.44853 13.3611 6.56167 10.8503C6.61824 10.2226 6.61824 9.53788 6.73138 8.91019C7.07079 7.3695 8.37188 6.22825 9.95581 6.17119C11.4832 6.11412 13.0105 6.05706 14.5379 6C16.1218 6.05706 17.7058 6.05706 19.2897 6.17119C20.5908 6.28531 21.9485 7.31244 22.2879 8.85313C22.4576 9.59494 22.4576 10.3368 22.4576 11.0786C22.5141 13.0187 22.5141 14.9588 22.4576 16.899Z" stroke="black" stroke-width="1.5"/>
    <path d="M10.5 14C10.5 11.7882 12.2882 10 14.5 10C16.6647 10 18.4529 11.7882 18.5 14C18.5 16.2118 16.7118 18 14.5 18C12.2882 18 10.5 16.2118 10.5 14Z" stroke="black" stroke-width="1.5"/>
    <path d="M19.473 10C20.0135 10 20.5 9.57895 20.5 9C20.5 8.47368 20.0676 8 19.473 8C18.8784 8 18.5 8.47368 18.5 9C18.5 9.52632 18.9324 10 19.473 10Z" fill="black"/>
</svg>
