<svg width="45" height="44" viewBox="0 0 45 44" fill="none" xmlns="http://www.w3.org/2000/svg">
    <path d="M22.5 44C10.3 44 0.5 34.1 0.5 22C0.5 9.8 10.3 0 22.5 0C34.6 0 44.5 9.8 44.5 22C44.5 34.1 34.6 44 22.5 44Z"/>
    <path d="M22.5008 17C22.5008 17 24.1008 13 28.6008 13C32.0008 13 34.7008 15.9 34.7008 20C34.7008 25 28.6008 31.7 22.5008 33.5C16.4008 31.8 10.3008 25 10.3008 20C10.3008 16 13.0008 13 16.4008 13C20.9008 13.1 22.5008 17 22.5008 17Z" stroke="white" stroke-width="1.25" stroke-miterlimit="10"/>
</svg>
