<svg width="29" height="28" viewBox="0 0 29 28" fill="none" xmlns="http://www.w3.org/2000/svg">
    <rect x="0.5" width="28" height="28" rx="14" fill="white"/>
    <path d="M11.5333 20H8.5V10.4722H11.5333V20ZM10.04 9.20833C9.15333 9.20833 8.5 8.47917 8.5 7.60417C8.5 6.72917 9.2 6 10.04 6C10.88 6 11.58 6.72917 11.58 7.60417C11.5333 8.47917 10.88 9.20833 10.04 9.20833ZM22.5 20H19.56V15.3819C19.56 14.2639 19.56 12.8542 18.02 12.8542C16.48 12.8542 16.2467 14.0694 16.2467 15.2847V20H13.3067V10.4722H16.1067V11.7847H16.1533C16.5267 11.0556 17.5067 10.2292 18.9067 10.2292C21.8933 10.2292 22.4067 12.2222 22.4067 14.75C22.5 14.75 22.5 20 22.5 20Z" fill="black"/>
</svg>
