<svg width="75" height="64" viewBox="0 0 75 64" fill="none" xmlns="http://www.w3.org/2000/svg">
    <path d="M0.546875 52.3836H1.63234V62.6194H7.39094V63.6461H0.546875V52.3836Z" fill="white"/>
    <path d="M17.7108 60.6433H11.9804L10.7469 63.6538H9.61914L14.3205 52.3836H15.3918L20.0932 63.6461H18.9443L17.7108 60.6433ZM17.3161 59.6707L14.8491 53.6187L12.3821 59.6707H17.3161Z" fill="white"/>
    <path d="M29.2976 63.6461L26.9505 60.0257C26.6826 60.0566 26.4148 60.0721 26.1258 60.0721H23.3628V63.6461H22.2773V52.3836H26.1258C27.4368 52.3836 28.4659 52.7232 29.213 53.4102C29.9602 54.0973 30.3267 55.039 30.3267 56.2433C30.3267 57.1233 30.1223 57.8643 29.7135 58.4742C29.3047 59.084 28.7267 59.5163 27.9725 59.7864L30.4818 63.6461H29.2976ZM28.4307 58.3198C28.9663 57.8257 29.2412 57.131 29.2412 56.2433C29.2412 55.3324 28.9734 54.6299 28.4307 54.1436C27.895 53.6573 27.1126 53.4102 26.0976 53.4102H23.3628V59.0608H26.0976C27.1126 59.0608 27.895 58.8138 28.4307 58.3198Z" fill="white"/>
    <path d="M35.8109 58.3584L33.7105 60.6896V63.6538H32.625V52.3836H33.7105V59.1921L39.751 52.3836H40.9986L36.544 57.4861L41.3017 63.6461H40.0118L35.8109 58.3584Z" fill="white"/>
    <path d="M48.7717 59.7556V63.6461H47.7003V59.7556L43.584 52.3836H44.747L48.2712 58.7057L51.7955 52.3836H52.8809L48.7717 59.7556Z" fill="white"/>
    <path d="M51.9521 63.4686C51.797 63.2987 51.7266 63.0903 51.7266 62.8433C51.7266 62.5963 51.8041 62.3879 51.9521 62.2257C52.1072 62.0559 52.2904 61.9787 52.5019 61.9787C52.7204 61.9787 52.9037 62.0636 53.0587 62.2257C53.2138 62.3956 53.2913 62.5963 53.2913 62.8433C53.2913 63.0903 53.2138 63.2987 53.0587 63.4686C52.9037 63.6384 52.7133 63.7233 52.5019 63.7233C52.2904 63.731 52.1072 63.6461 51.9521 63.4686Z" fill="white"/>
    <path d="M57.0263 63.0054C56.2087 62.5114 55.5673 61.8321 55.1021 60.9521C54.6369 60.0798 54.4043 59.0994 54.4043 58.0187C54.4043 56.938 54.6369 55.9577 55.1021 55.0854C55.5673 54.2131 56.2087 53.5261 57.0334 53.032C57.858 52.538 58.7743 52.291 59.7964 52.291C60.5576 52.291 61.2625 52.4299 61.9109 52.7078C62.5594 52.9857 63.1092 53.3948 63.5532 53.9275L62.8625 54.684C62.0589 53.7962 61.044 53.3485 59.8246 53.3485C59.014 53.3485 58.2739 53.5492 57.6043 53.9583C56.9347 54.3675 56.4131 54.9233 56.0395 55.6334C55.6589 56.3436 55.4757 57.1387 55.4757 58.011C55.4757 58.891 55.666 59.6861 56.0395 60.3886C56.4131 61.0987 56.9347 61.6545 57.6043 62.0637C58.2669 62.4728 59.0069 62.6735 59.8246 62.6735C61.0581 62.6735 62.073 62.2258 62.8625 61.3226L63.5532 62.0791C63.1021 62.6117 62.5523 63.0286 61.9039 63.3065C61.2554 63.5921 60.5435 63.731 59.7823 63.731C58.7673 63.7465 57.8439 63.4995 57.0263 63.0054Z" fill="white"/>
    <path d="M74.3733 52.3836V63.6461H73.302V58.451H66.8667V63.6461H65.7812V52.3836H66.8667V57.4012H73.302V52.3836H74.3733Z" fill="white"/>
    <path d="M34.1403 0C36.3606 0 38.5315 0 40.7165 0C40.7165 0.571233 40.7165 1.11931 40.7165 1.72914C40.054 1.72914 39.4055 1.72914 38.757 1.72914C38.2284 1.72914 38.2284 1.72914 38.2284 2.29265C38.2284 3.67442 38.2355 5.0639 38.2214 6.44567C38.2214 6.75444 38.3059 6.84707 38.5879 6.85479C52.995 7.41059 65.3298 18.5882 68.5509 34.0347C68.8258 35.3392 68.9738 36.667 69.1641 37.9947C69.2135 38.3189 69.291 38.4733 69.6364 38.4656C70.8981 38.4424 72.1668 38.4501 73.4285 38.4579C74.0981 38.4579 74.373 38.7743 74.3659 39.5154C74.3518 43.7456 71.3421 47.5976 67.5219 48.2614C66.9791 48.3541 66.4293 48.4158 65.8866 48.4158C46.9192 48.4235 27.9517 48.4235 8.9843 48.4235C5.01601 48.4235 1.73847 45.7063 0.77283 41.5919C0.617763 40.9203 0.554327 40.2179 0.504988 39.5231C0.455649 38.7975 0.77283 38.4656 1.43539 38.4579C2.71116 38.4501 3.98693 38.4501 5.26271 38.4656C5.55874 38.4733 5.66447 38.3498 5.69266 38.041C6.88385 25.7363 13.9746 15.4233 23.4971 10.3362C26.683 8.63797 30.0381 7.5341 33.5694 7.09409C34.4786 6.9783 35.3949 6.91655 36.3112 6.85479C36.5509 6.83935 36.6425 6.76988 36.6425 6.49198C36.6355 5.0253 36.6355 3.55863 36.6425 2.09195C36.6425 1.81405 36.5509 1.72142 36.3112 1.72914C35.698 1.73686 35.0848 1.72142 34.4716 1.73686C34.2319 1.74458 34.1262 1.65966 34.1332 1.38177C34.1544 0.918604 34.1403 0.463162 34.1403 0ZM67.6699 38.4347C66.2672 27.2957 61.3615 18.7117 52.5368 13.038C42.2319 6.42251 29.3614 7.17129 19.7755 14.8443C12.4803 20.6802 8.37813 28.5848 7.22923 38.427C27.402 38.4347 47.469 38.4347 67.6699 38.4347ZM2.04155 40.2179C2.31644 41.0747 2.48561 41.8852 2.83098 42.6031C4.1561 45.359 6.29883 46.6635 9.12527 46.6635C28.0011 46.6635 46.8769 46.6635 65.7456 46.6635C65.8232 46.6635 65.9007 46.6635 65.9782 46.6635C69.136 46.6018 71.7016 44.4944 72.5192 41.2831C72.6038 40.9435 72.6602 40.5961 72.7307 40.2179C49.1817 40.2179 25.6892 40.2179 2.04155 40.2179Z" fill="white"/>
</svg>

