<svg width="661" height="191" viewBox="0 0 661 191" fill="none" xmlns="http://www.w3.org/2000/svg">
<g clip-path="url(#clip0_3522_586)">
<path d="M323.316 100.308C323.316 106.231 319.466 110.65 313.08 110.65H307.164V89.9658H313.08C319.56 89.9658 323.316 94.2906 323.316 100.308ZM320.686 100.308C320.686 95.8889 318.057 92.3162 312.986 92.3162H309.699V108.299H312.986C318.057 108.299 320.686 104.727 320.686 100.308Z" fill="#FA0064"/>
<path d="M328.012 90.906C328.951 90.906 329.702 91.6581 329.702 92.5983C329.702 93.5385 328.951 94.2906 328.012 94.2906C327.073 94.2906 326.321 93.5385 326.321 92.5983C326.321 91.6581 327.073 90.906 328.012 90.906ZM326.791 97.0171H329.232V110.65H326.791V97.0171Z" fill="#FA0064"/>
<path d="M345.948 103.88C345.948 104.162 345.948 104.35 345.948 104.633H334.961C335.149 106.701 337.121 108.581 339.656 108.581C342.379 108.581 343.788 106.607 343.788 106.607L345.384 108.205C345.384 108.205 343.318 110.932 339.75 110.932C335.618 110.932 332.613 107.829 332.613 103.786C332.613 99.8376 335.337 96.6411 339.468 96.6411C343.131 96.6411 345.948 99.4616 345.948 103.88ZM343.6 102.658C343.506 101.154 342.098 98.9915 339.374 98.9915C336.463 98.9915 335.243 101.248 335.055 102.658H343.6Z" fill="#FA0064"/>
<path d="M357.592 89.9658H363.038C367.264 89.9658 369.706 92.1282 369.706 95.6068C369.706 98.4274 367.64 99.5556 367.358 99.6496C367.64 99.7436 370.832 100.59 370.832 104.727C370.832 108.299 368.203 110.65 364.071 110.65H357.592V89.9658ZM363.414 98.8974C365.762 98.8974 367.17 97.5812 367.17 95.6068C367.17 93.6325 365.762 92.3162 363.414 92.3162H360.033V98.8974H363.414ZM368.297 104.727C368.297 102.752 366.982 101.154 364.071 101.154H360.127V108.205H364.071C366.982 108.299 368.297 106.701 368.297 104.727Z" fill="#FA0064"/>
<path d="M386.233 103.88C386.233 104.162 386.233 104.35 386.233 104.633H375.246C375.434 106.701 377.406 108.581 379.941 108.581C382.665 108.581 384.073 106.607 384.073 106.607L385.67 108.205C385.67 108.205 383.604 110.932 380.035 110.932C375.903 110.932 372.898 107.829 372.898 103.786C372.898 99.8376 375.622 96.6411 379.754 96.6411C383.416 96.6411 386.233 99.4616 386.233 103.88ZM383.791 102.658C383.698 101.154 382.289 98.9915 379.566 98.9915C376.655 98.9915 375.434 101.248 375.246 102.658H383.791Z" fill="#FA0064"/>
<path d="M389.895 106.513C389.895 106.513 391.304 108.769 394.027 108.769C395.436 108.769 396.938 108.205 396.938 107.077C396.938 105.855 395.905 105.291 393.839 104.915C390.928 104.35 388.862 103.128 388.862 100.59C388.862 98.6154 390.834 96.6411 393.839 96.6411C397.032 96.6411 398.91 98.7094 398.91 98.7094L397.314 100.402C397.314 100.402 395.999 98.8975 393.933 98.8975C392.149 98.8975 391.304 99.7436 391.304 100.684C391.304 101.718 392.337 102.282 394.591 102.752C397.22 103.316 399.38 104.256 399.38 107.077C399.38 109.709 396.563 111.026 394.027 111.026C390.177 111.026 388.205 108.205 388.205 108.205L389.895 106.513Z" fill="#FA0064"/>
<path d="M401.258 97.0171H403.887V92.8803H406.329V97.0171H410.554V99.2735H406.329V106.607C406.329 107.923 406.986 108.675 408.301 108.675C409.052 108.675 409.897 108.111 409.897 108.111L410.836 110.179C409.615 110.838 408.77 111.026 408.019 111.026C406.047 111.026 403.887 109.709 403.887 106.701V99.2735H401.258V97.0171Z" fill="#FA0064"/>
<path d="M426.048 103.88C426.048 104.162 426.048 104.35 426.048 104.633H415.062C415.249 106.701 417.221 108.581 419.757 108.581C422.48 108.581 423.889 106.607 423.889 106.607L425.485 108.205C425.485 108.205 423.419 110.932 419.851 110.932C415.719 110.932 412.714 107.829 412.714 103.786C412.714 99.8376 415.437 96.6411 419.569 96.6411C423.231 96.6411 426.048 99.4616 426.048 103.88ZM423.607 102.658C423.513 101.154 422.104 98.9915 419.381 98.9915C416.47 98.9915 415.249 101.248 415.062 102.658H423.607Z" fill="#FA0064"/>
<path d="M429.43 88.2735H431.871V110.65H429.43V88.2735Z" fill="#FA0064"/>
<path d="M436.754 88.2735H439.195V110.65H436.754V88.2735Z" fill="#FA0064"/>
<path d="M445.768 97.0171V98.9915C445.768 98.9915 447.083 96.6411 450.37 96.6411C454.032 96.6411 456.943 99.8376 456.943 103.786C456.943 107.829 454.032 110.932 450.37 110.932C447.834 110.932 446.426 109.521 445.956 108.863V117.325H443.515V96.9231H445.768V97.0171ZM446.05 106.325C446.05 106.325 447.365 108.675 450.088 108.675C452.905 108.675 454.596 106.513 454.596 103.786C454.596 101.06 452.811 98.8975 450.088 98.8975C447.365 98.8975 446.05 101.248 446.05 101.248V106.325Z" fill="#FA0064"/>
<path d="M460.418 88.2735H462.86V110.65H460.418V88.2735Z" fill="#FA0064"/>
<path d="M478.542 101.624V110.65H476.288V108.675C476.288 108.675 474.786 111.026 471.687 111.026C469.246 111.026 466.616 109.333 466.616 106.325C466.616 103.692 468.964 101.812 471.969 101.812C474.504 101.812 476.101 102.94 476.101 102.94V102.188C476.101 99.3675 473.753 98.9915 472.626 98.9915C470.56 98.9915 468.588 100.12 468.588 100.12L467.555 98.0513C467.555 98.0513 469.715 96.6411 472.626 96.6411C476.57 96.6411 478.542 99.0855 478.542 101.624ZM476.007 106.701V104.821C476.007 104.821 474.692 103.88 472.438 103.88C470.279 103.88 468.964 104.915 468.964 106.325C468.964 108.111 470.56 108.769 472.063 108.769C474.504 108.769 476.007 106.701 476.007 106.701Z" fill="#FA0064"/>
<path d="M481.077 97.0171H483.706V92.8803H486.148V97.0171H490.374V99.2735H486.148V106.607C486.148 107.923 486.805 108.675 488.12 108.675C488.871 108.675 489.716 108.111 489.716 108.111L490.656 110.179C489.435 110.838 488.59 111.026 487.838 111.026C485.866 111.026 483.706 109.709 483.706 106.701V99.2735H481.077V97.0171Z" fill="#FA0064"/>
<path d="M492.158 97.0171H494.788V92.8803H497.229V97.0171H501.455V99.2735H497.229V106.607C497.229 107.923 497.886 108.675 499.201 108.675C499.952 108.675 500.798 108.111 500.798 108.111L501.737 110.179C500.516 110.838 499.671 111.026 498.919 111.026C496.947 111.026 494.788 109.709 494.788 106.701V99.2735H492.158V97.0171Z" fill="#FA0064"/>
<path d="M503.145 97.0171H505.962V92.3162C505.962 89.4017 508.215 87.9915 510.187 87.9915C510.939 87.9915 511.878 88.1795 513.005 88.7436L512.066 90.812C512.066 90.812 511.22 90.2479 510.469 90.2479C509.154 90.2479 508.403 91.094 508.403 92.4103V96.9231H511.972V99.1795H508.403V110.556H505.962V99.1795H503.145V97.0171Z" fill="#FA0064"/>
<path d="M527.373 103.786C527.373 107.829 524.368 110.932 520.33 110.932C516.292 110.932 513.287 107.735 513.287 103.786C513.287 99.7436 516.292 96.6411 520.33 96.6411C524.368 96.6411 527.373 99.8376 527.373 103.786ZM524.838 103.786C524.838 101.06 523.053 98.8975 520.33 98.8975C517.607 98.8975 515.823 101.06 515.823 103.786C515.823 106.513 517.607 108.675 520.33 108.675C523.053 108.675 524.838 106.513 524.838 103.786Z" fill="#FA0064"/>
<path d="M538.265 97.0171L537.326 99.2735C537.326 99.2735 536.763 98.9915 535.73 98.9915C533.57 98.9915 532.631 101.342 532.631 101.342V110.744H530.189V97.1111H532.537V99.1795C532.537 99.1795 533.758 96.7351 536.387 96.7351C537.42 96.641 538.265 97.0171 538.265 97.0171Z" fill="#FA0064"/>
<path d="M559.301 101.906V110.65H556.859V102.282C556.859 100.026 555.733 98.9915 553.948 98.9915C551.882 98.9915 551.037 101.154 551.037 101.154V110.65H548.596V102.282C548.596 100.026 547.469 98.9915 545.685 98.9915C543.713 98.9915 542.774 101.154 542.774 101.154V110.65H540.332V97.0171H542.68V98.9915C542.68 98.9915 543.713 96.6411 546.436 96.6411C549.816 96.6411 550.662 99.1795 550.662 99.1795C550.662 99.1795 551.788 96.6411 554.7 96.6411C557.423 96.6411 559.301 98.5214 559.301 101.906Z" fill="#FA0064"/>
<path d="M316.743 134.812V124.47H319.184V146.846H316.931V144.872C316.931 144.872 315.616 147.222 312.329 147.222C308.667 147.222 305.756 144.026 305.756 140.077C305.756 136.034 308.667 132.932 312.329 132.932C315.334 132.744 316.743 134.812 316.743 134.812ZM316.743 137.444C316.743 137.444 315.428 135.094 312.705 135.094C309.982 135.094 308.197 137.256 308.197 139.983C308.197 142.709 309.982 144.872 312.705 144.872C315.428 144.872 316.743 142.521 316.743 142.521V137.444Z" fill="#FA0064"/>
<path d="M335.994 139.983C335.994 140.265 335.994 140.453 335.994 140.735H325.007C325.195 142.803 327.167 144.684 329.702 144.684C332.425 144.684 333.834 142.709 333.834 142.709L335.43 144.308C335.43 144.308 333.364 147.034 329.796 147.034C325.664 147.034 322.659 143.932 322.659 139.889C322.659 135.94 325.382 132.744 329.514 132.744C333.177 132.744 335.994 135.564 335.994 139.983ZM333.552 138.761C333.458 137.256 332.05 135.094 329.326 135.094C326.415 135.094 325.195 137.35 325.007 138.761H333.552Z" fill="#FA0064"/>
<path d="M346.886 133.12L345.947 135.376C345.947 135.376 345.384 135.094 344.351 135.094C342.191 135.094 341.252 137.444 341.252 137.444V146.846H338.811V133.214H341.158V135.282C341.158 135.282 342.379 132.838 345.008 132.838C346.041 132.744 346.886 133.12 346.886 133.12Z" fill="#FA0064"/>
<path d="M363.132 137.444C360.127 136.034 357.497 134.624 357.497 131.145C357.497 128.701 359.469 125.692 363.413 125.692C367.264 125.692 369.329 128.701 369.329 128.701L367.451 130.205C367.451 130.205 366.043 128.043 363.413 128.043C361.16 128.043 359.939 129.641 359.939 131.145C359.939 133.214 361.723 134.06 364.54 135.376C367.733 136.786 369.705 138.197 369.705 141.487C369.705 144.872 366.888 147.128 363.319 147.128C358.436 147.128 356.746 142.803 356.746 142.803L358.812 141.581C358.812 141.581 360.033 144.778 363.319 144.778C365.291 144.778 367.17 143.65 367.17 141.487C367.17 139.325 365.479 138.479 363.132 137.444Z" fill="#FA0064"/>
<path d="M384.825 144.496C384.825 144.496 382.853 147.128 379.284 147.128C375.246 147.128 372.241 143.932 372.241 139.983C372.241 136.034 375.246 132.838 379.284 132.838C382.759 132.838 384.731 135.282 384.731 135.282L383.04 136.786C383.04 136.786 381.726 135.094 379.284 135.094C376.561 135.094 374.777 137.256 374.777 139.983C374.777 142.709 376.561 144.872 379.284 144.872C381.913 144.872 383.228 142.897 383.228 142.897L384.825 144.496Z" fill="#FA0064"/>
<path d="M399.379 138.009V146.752H396.938V138.385C396.938 136.034 395.529 135 393.651 135C391.398 135 390.271 137.35 390.271 137.35V146.752H387.829V124.376H390.271V134.718C390.646 134.154 391.961 132.744 394.309 132.744C396.938 132.744 399.379 134.624 399.379 138.009Z" fill="#FA0064"/>
<path d="M404.168 133.12L407.831 141.957L411.399 133.12H413.089L416.752 141.957L420.414 133.12H422.949L416.752 147.316L412.244 137.068L407.737 147.316L401.539 133.12H404.168Z" fill="#FA0064"/>
<path d="M437.317 139.983C437.317 140.265 437.317 140.453 437.317 140.735H426.33C426.518 142.803 428.49 144.684 431.025 144.684C433.749 144.684 435.157 142.709 435.157 142.709L436.754 144.308C436.754 144.308 434.688 147.034 431.119 147.034C426.987 147.034 423.982 143.932 423.982 139.889C423.982 135.94 426.706 132.744 430.838 132.744C434.5 132.744 437.317 135.564 437.317 139.983ZM434.875 138.761C434.782 137.256 433.373 135.094 430.65 135.094C427.739 135.094 426.518 137.35 426.33 138.761H434.875Z" fill="#FA0064"/>
<path d="M441.825 127.009C442.764 127.009 443.515 127.761 443.515 128.701C443.515 129.641 442.764 130.393 441.825 130.393C440.886 130.393 440.135 129.641 440.135 128.701C440.135 127.855 440.886 127.009 441.825 127.009ZM440.604 133.12H443.046V146.752H440.604V133.12Z" fill="#FA0064"/>
<path d="M458.54 133.12L450.745 144.496H458.258V146.846H446.426L454.22 135.47H446.801V133.12H458.54Z" fill="#FA0064"/>
<path d="M473.659 139.983C473.659 140.265 473.659 140.453 473.659 140.735H462.672C462.86 142.803 464.832 144.684 467.367 144.684C470.09 144.684 471.499 142.709 471.499 142.709L473.095 144.308C473.095 144.308 471.029 147.034 467.461 147.034C463.329 147.034 460.324 143.932 460.324 139.889C460.324 135.94 463.047 132.744 467.179 132.744C470.842 132.744 473.659 135.564 473.659 139.983ZM471.217 138.761C471.123 137.256 469.715 135.094 466.991 135.094C464.08 135.094 462.86 137.35 462.672 138.761H471.217Z" fill="#FA0064"/>
<path d="M484.551 133.12L483.612 135.376C483.612 135.376 483.049 135.094 482.016 135.094C479.856 135.094 478.917 137.444 478.917 137.444V146.846H476.476V133.214H478.823V135.282C478.823 135.282 480.044 132.838 482.673 132.838C483.706 132.744 484.551 133.12 484.551 133.12Z" fill="#FA0064"/>
<path d="M504.835 135.376H512.441V144.402C512.441 144.402 509.718 147.128 504.366 147.128C498.449 147.128 494.13 142.427 494.13 136.41C494.13 130.487 498.449 125.692 504.366 125.692C509.718 125.692 511.878 128.607 511.878 128.607L510.094 130.393C510.094 130.393 508.122 128.043 504.272 128.043C499.764 128.043 496.665 131.991 496.665 136.41C496.665 140.829 499.764 144.778 504.272 144.778C508.028 144.778 509.906 143.274 509.906 143.274V137.821H504.741V135.376H504.835Z" fill="#FA0064"/>
<path d="M527.279 137.727V146.752H525.025V144.778C525.025 144.778 523.522 147.128 520.423 147.128C517.982 147.128 515.353 145.436 515.353 142.427C515.353 139.795 517.7 137.915 520.705 137.915C523.241 137.915 524.837 139.043 524.837 139.043V138.291C524.837 135.47 522.489 135.094 521.363 135.094C519.297 135.094 517.325 136.222 517.325 136.222L516.292 134.154C516.292 134.154 518.451 132.744 521.363 132.744C525.4 132.744 527.279 135.188 527.279 137.727ZM524.837 142.803V140.923C524.837 140.923 523.522 139.983 521.269 139.983C519.109 139.983 517.794 141.017 517.794 142.427C517.794 144.214 519.39 144.872 520.893 144.872C523.335 144.872 524.837 142.803 524.837 142.803Z" fill="#FA0064"/>
<path d="M531.88 142.615C531.88 142.615 533.288 144.872 536.012 144.872C537.42 144.872 538.923 144.308 538.923 143.179C538.923 141.957 537.89 141.393 535.824 141.017C532.913 140.453 530.847 139.231 530.847 136.692C530.847 134.718 532.819 132.744 535.824 132.744C539.017 132.744 540.895 134.812 540.895 134.812L539.298 136.504C539.298 136.504 537.984 135 535.918 135C534.134 135 533.288 135.846 533.288 136.786C533.288 137.821 534.321 138.385 536.575 138.855C539.204 139.419 541.364 140.359 541.364 143.179C541.364 145.812 538.547 147.128 536.012 147.128C532.161 147.128 530.189 144.308 530.189 144.308L531.88 142.615Z" fill="#FA0064"/>
<path d="M543.337 133.12H545.966V128.983H548.408V133.12H552.634V135.376H548.408V142.709C548.408 144.026 549.065 144.778 550.38 144.778C551.131 144.778 551.976 144.214 551.976 144.214L552.915 146.282C551.695 146.94 550.849 147.128 550.098 147.128C548.126 147.128 545.966 145.812 545.966 142.803V135.376H543.337V133.12Z" fill="#FA0064"/>
<path d="M563.62 133.12L562.681 135.376C562.681 135.376 562.117 135.094 561.084 135.094C558.925 135.094 557.986 137.444 557.986 137.444V146.846H555.544V133.214H557.892V135.282C557.892 135.282 559.112 132.838 561.742 132.838C562.775 132.744 563.62 133.12 563.62 133.12Z" fill="#FA0064"/>
<path d="M578.269 139.889C578.269 143.932 575.264 147.034 571.226 147.034C567.189 147.034 564.184 143.838 564.184 139.889C564.184 135.846 567.189 132.744 571.226 132.744C575.264 132.744 578.269 135.94 578.269 139.889ZM575.734 139.889C575.734 137.162 573.95 135 571.226 135C568.503 135 566.719 137.162 566.719 139.889C566.719 142.615 568.503 144.778 571.226 144.778C573.95 144.778 575.734 142.615 575.734 139.889Z" fill="#FA0064"/>
<path d="M592.731 138.009V146.752H590.289V138.385C590.289 136.034 588.881 135 587.003 135C584.749 135 583.622 137.35 583.622 137.35V146.752H581.181V133.12H583.528V135C583.528 135 584.749 132.744 587.754 132.744C590.289 132.744 592.731 134.624 592.731 138.009Z" fill="#FA0064"/>
<path d="M609.54 139.889C609.54 143.932 606.535 147.034 602.497 147.034C598.459 147.034 595.454 143.838 595.454 139.889C595.454 135.846 598.459 132.744 602.497 132.744C606.535 132.744 609.54 135.94 609.54 139.889ZM607.098 139.889C607.098 137.162 605.314 135 602.591 135C599.868 135 598.083 137.162 598.083 139.889C598.083 142.615 599.868 144.778 602.591 144.778C605.314 144.778 607.098 142.615 607.098 139.889Z" fill="#FA0064"/>
<path d="M631.514 138.009V146.752H629.072V138.385C629.072 136.128 627.946 135.094 626.161 135.094C624.095 135.094 623.25 137.256 623.25 137.256V146.752H620.715V138.385C620.715 136.128 619.588 135.094 617.804 135.094C615.832 135.094 614.893 137.256 614.893 137.256V146.752H612.451V133.12H614.799V135.094C614.799 135.094 615.832 132.744 618.555 132.744C621.936 132.744 622.781 135.282 622.781 135.282C622.781 135.282 623.908 132.744 626.819 132.744C629.636 132.744 631.514 134.624 631.514 138.009Z" fill="#FA0064"/>
<path d="M636.96 127.009C637.899 127.009 638.65 127.761 638.65 128.701C638.65 129.641 637.899 130.393 636.96 130.393C636.021 130.393 635.27 129.641 635.27 128.701C635.27 127.855 636.115 127.009 636.96 127.009ZM635.739 133.12H638.181V146.752H635.739V133.12Z" fill="#FA0064"/>
<path d="M654.99 139.983C654.99 140.265 654.99 140.453 654.99 140.735H644.003C644.191 142.803 646.163 144.684 648.698 144.684C651.421 144.684 652.83 142.709 652.83 142.709L654.426 144.308C654.426 144.308 652.361 147.034 648.792 147.034C644.66 147.034 641.655 143.932 641.655 139.889C641.655 135.94 644.379 132.744 648.51 132.744C652.079 132.744 654.99 135.564 654.99 139.983ZM652.548 138.761C652.454 137.256 651.046 135.094 648.323 135.094C645.412 135.094 644.191 137.35 644.003 138.761H652.548Z" fill="#FA0064"/>
<path d="M659.309 143.744C660.248 143.744 661 144.496 661 145.436C661 146.376 660.248 147.128 659.309 147.128C658.37 147.128 657.619 146.376 657.619 145.436C657.619 144.496 658.37 143.744 659.309 143.744Z" fill="#FA0064"/>
<path d="M312.705 173.547C309.7 172.137 307.071 170.726 307.071 167.248C307.071 164.803 309.043 161.795 312.987 161.795C316.837 161.795 318.903 164.803 318.903 164.803L317.025 166.308C317.025 166.308 315.616 164.145 312.987 164.145C310.733 164.145 309.512 165.744 309.512 167.248C309.512 169.316 311.296 170.162 314.113 171.479C317.306 172.889 319.278 174.299 319.278 177.59C319.278 180.974 316.461 183.231 312.893 183.231C308.01 183.231 306.319 178.906 306.319 178.906L308.385 177.684C308.385 177.684 309.606 180.88 312.893 180.88C314.865 180.88 316.743 179.752 316.743 177.59C316.649 175.427 314.959 174.581 312.705 173.547Z" fill="#FA0064"/>
<path d="M334.303 180.598C334.303 180.598 332.331 183.231 328.763 183.231C324.725 183.231 321.72 180.034 321.72 176.085C321.72 172.137 324.725 168.94 328.763 168.94C332.237 168.94 334.209 171.385 334.209 171.385L332.425 172.795C332.425 172.795 331.11 171.103 328.669 171.103C325.945 171.103 324.161 173.265 324.161 175.991C324.161 178.718 325.945 180.88 328.669 180.88C331.298 180.88 332.613 178.906 332.613 178.906L334.303 180.598Z" fill="#FA0064"/>
<path d="M348.858 174.111V182.855H346.416V174.487C346.416 172.137 345.008 171.103 343.13 171.103C340.876 171.103 339.749 173.453 339.749 173.453V182.855H337.308V160.479H339.749V170.821C340.125 170.256 341.439 168.846 343.787 168.846C346.416 168.846 348.858 170.727 348.858 174.111Z" fill="#FA0064"/>
<path d="M364.259 174.111V182.855H361.818V174.487C361.818 172.137 360.409 171.103 358.531 171.103C356.277 171.103 355.151 173.453 355.151 173.453V182.855H352.709V169.222H355.057V171.103C355.057 171.103 356.277 168.846 359.282 168.846C361.818 168.846 364.259 170.726 364.259 174.111Z" fill="#FA0064"/>
<path d="M380.598 176.085C380.598 176.367 380.598 176.556 380.598 176.838H369.611C369.799 178.906 371.771 180.786 374.307 180.786C377.03 180.786 378.438 178.812 378.438 178.812L380.035 180.41C380.035 180.41 377.969 183.137 374.4 183.137C370.269 183.137 367.264 180.034 367.264 175.991C367.264 172.043 369.987 168.846 374.119 168.846C377.687 168.846 380.598 171.761 380.598 176.085ZM378.157 174.863C378.063 173.359 376.654 171.197 373.931 171.197C371.02 171.197 369.799 173.453 369.611 174.863H378.157Z" fill="#FA0064"/>
<path d="M383.885 160.479H386.326V182.855H383.885V160.479Z" fill="#FA0064"/>
<path d="M391.21 160.479H393.652V182.855H391.21V160.479Z" fill="#FA0064"/>
<path d="M399.286 180.128L401.54 180.88L399.004 187.744L396.938 186.991L399.286 180.128Z" fill="#FA0064"/>
<path d="M424.359 173.829V182.855H422.105V180.88C422.105 180.88 420.602 183.231 417.504 183.231C415.062 183.231 412.433 181.538 412.433 178.53C412.433 175.897 414.78 174.017 417.785 174.017C420.321 174.017 421.917 175.145 421.917 175.145V174.393C421.917 171.573 419.569 171.197 418.443 171.197C416.377 171.197 414.405 172.325 414.405 172.325L413.372 170.256C413.372 170.256 415.531 168.846 418.443 168.846C422.48 168.846 424.359 171.291 424.359 173.829ZM421.917 179V177.12C421.917 177.12 420.602 176.179 418.349 176.179C416.189 176.179 414.874 177.214 414.874 178.624C414.874 180.41 416.471 181.068 417.973 181.068C420.415 181.068 421.917 179 421.917 179Z" fill="#FA0064"/>
<path d="M442.2 175.991C442.2 180.034 439.289 183.137 435.627 183.137C432.34 183.137 431.025 180.786 431.025 180.786V182.761H428.771V160.385H431.213V170.726C431.213 170.726 432.622 168.658 435.627 168.658C439.289 168.846 442.2 172.043 442.2 175.991ZM431.213 178.53C431.213 178.53 432.528 180.88 435.251 180.88C438.068 180.88 439.758 178.718 439.758 175.991C439.758 173.265 437.974 171.103 435.251 171.103C432.528 171.103 431.213 173.453 431.213 173.453V178.53Z" fill="#FA0064"/>
<path d="M457.507 176.085C457.507 176.367 457.507 176.556 457.507 176.838H446.52C446.708 178.906 448.68 180.786 451.216 180.786C453.939 180.786 455.348 178.812 455.348 178.812L456.944 180.41C456.944 180.41 454.878 183.137 451.31 183.137C447.178 183.137 444.173 180.034 444.173 175.991C444.173 172.043 446.896 168.846 451.028 168.846C454.69 168.846 457.507 171.761 457.507 176.085ZM455.066 174.863C454.972 173.359 453.563 171.197 450.84 171.197C447.929 171.197 446.708 173.453 446.52 174.863H455.066Z" fill="#FA0064"/>
<path d="M468.4 169.222L467.461 171.479C467.461 171.479 466.898 171.197 465.865 171.197C463.705 171.197 462.766 173.547 462.766 173.547V182.949H460.324V169.316H462.672V171.385C462.672 171.385 463.893 168.94 466.522 168.94C467.555 168.846 468.4 169.222 468.4 169.222Z" fill="#FA0064"/>
<path d="M488.683 181.162C488.214 181.82 486.805 183.231 484.27 183.231C480.607 183.231 477.696 180.034 477.696 176.085C477.696 172.043 480.607 168.94 484.27 168.94C487.556 168.94 488.871 171.291 488.871 171.291V169.316H491.125V183.043C491.125 187.744 487.932 190.094 483.988 190.094C480.232 190.094 478.072 187.462 478.072 187.462L479.574 185.581C479.574 185.581 481.265 187.744 483.988 187.744C486.899 187.744 488.683 186.145 488.683 183.043V181.162ZM488.683 173.453C488.683 173.453 487.369 171.103 484.645 171.103C481.828 171.103 480.138 173.265 480.138 175.991C480.138 178.718 481.922 180.88 484.645 180.88C487.369 180.88 488.683 178.53 488.683 178.53V173.453Z" fill="#FA0064"/>
<path d="M494.976 177.966V169.222H497.417V177.59C497.417 179.94 498.826 180.974 500.704 180.974C503.051 180.974 504.084 178.718 504.084 178.718V169.222H506.526V182.855H504.272V180.786C504.272 180.786 503.051 183.231 500.046 183.231C497.417 183.231 494.976 181.35 494.976 177.966Z" fill="#FA0064"/>
<path d="M522.865 176.085C522.865 176.367 522.865 176.556 522.865 176.838H511.878C512.066 178.906 514.038 180.786 516.573 180.786C519.296 180.786 520.705 178.812 520.705 178.812L522.301 180.41C522.301 180.41 520.236 183.137 516.667 183.137C512.535 183.137 509.53 180.034 509.53 175.991C509.53 172.043 512.254 168.846 516.385 168.846C520.048 168.846 522.865 171.761 522.865 176.085ZM520.423 174.863C520.329 173.359 518.921 171.197 516.198 171.197C513.287 171.197 512.066 173.453 511.878 174.863H520.423Z" fill="#FA0064"/>
<path d="M524.556 169.222H527.185V165.085H529.627V169.222H533.852V171.479H529.627V178.812C529.627 180.128 530.284 180.88 531.599 180.88C532.35 180.88 533.195 180.316 533.195 180.316L534.134 182.385C532.913 183.043 532.068 183.231 531.317 183.231C529.345 183.231 527.185 181.915 527.185 178.906V171.479H524.556V169.222Z" fill="#FA0064"/>
<path d="M538.265 179.846C539.205 179.846 539.956 180.598 539.956 181.538C539.956 182.479 539.205 183.231 538.265 183.231C537.326 183.231 536.575 182.479 536.575 181.538C536.669 180.598 537.42 179.846 538.265 179.846Z" fill="#FA0064"/>
<path d="M0.148438 150.603H3.56618V180.031H21.698V182.983H0.148438V150.603Z" fill="#FA0064"/>
<path d="M54.1887 174.349H36.1456L32.2618 183.005H28.7109L43.5138 150.603H46.8871L61.69 182.983H58.0725L54.1887 174.349ZM52.9459 171.553L45.1783 154.154L37.4107 171.553H52.9459Z" fill="#FA0064"/>
<path d="M90.6747 182.983L83.2844 172.574C82.441 172.663 81.5977 172.707 80.6878 172.707H71.9881V182.983H68.5703V150.603H80.6878C84.8157 150.603 88.0559 151.579 90.4084 153.554C92.7609 155.53 93.9149 158.237 93.9149 161.699C93.9149 164.229 93.2713 166.36 91.9841 168.113C90.6969 169.866 88.8771 171.109 86.5024 171.886L94.4031 182.983H90.6747ZM87.9449 167.669C89.6316 166.249 90.4972 164.252 90.4972 161.699C90.4972 159.081 89.6538 157.061 87.9449 155.663C86.2583 154.265 83.7948 153.554 80.599 153.554H71.9881V169.8H80.599C83.7948 169.8 86.2583 169.09 87.9449 167.669Z" fill="#FA0064"/>
<path d="M111.181 167.78L104.567 174.483V183.005H101.149V150.603H104.567V170.177L123.587 150.603H127.515L113.489 165.272L128.469 182.983H124.408L111.181 167.78Z" fill="#FA0064"/>
<path d="M151.994 171.797V182.983H148.621V171.797L135.66 150.603H139.322L150.419 168.779L161.515 150.603H164.933L151.994 171.797Z" fill="#FA0064"/>
<path d="M162.003 182.472C161.515 181.984 161.293 181.385 161.293 180.675C161.293 179.964 161.537 179.365 162.003 178.899C162.491 178.411 163.068 178.189 163.734 178.189C164.422 178.189 164.999 178.433 165.487 178.899C165.976 179.387 166.22 179.964 166.22 180.675C166.22 181.385 165.976 181.984 165.487 182.472C164.999 182.96 164.4 183.205 163.734 183.205C163.068 183.227 162.491 182.983 162.003 182.472Z" fill="#FA0064"/>
<path d="M177.982 181.141C175.408 179.72 173.388 177.767 171.924 175.237C170.459 172.729 169.727 169.911 169.727 166.804C169.727 163.697 170.459 160.878 171.924 158.37C173.388 155.863 175.408 153.887 178.005 152.467C180.601 151.047 183.486 150.336 186.704 150.336C189.101 150.336 191.321 150.736 193.362 151.535C195.404 152.334 197.135 153.51 198.533 155.041L196.358 157.216C193.828 154.664 190.633 153.377 186.793 153.377C184.241 153.377 181.911 153.954 179.802 155.13C177.694 156.306 176.052 157.904 174.875 159.946C173.677 161.988 173.1 164.274 173.1 166.782C173.1 169.312 173.699 171.598 174.875 173.617C176.052 175.659 177.694 177.257 179.802 178.433C181.888 179.609 184.219 180.186 186.793 180.186C190.677 180.186 193.873 178.899 196.358 176.302L198.533 178.477C197.113 180.009 195.382 181.207 193.34 182.006C191.298 182.827 189.057 183.227 186.66 183.227C183.464 183.271 180.557 182.561 177.982 181.141Z" fill="#FA0064"/>
<path d="M232.599 150.603V182.983H229.226V168.047H208.964V182.983H205.546V150.603H208.964V165.028H229.226V150.603H232.599Z" fill="#FA0064"/>
<path d="M105.921 0C112.912 0 119.748 0 126.628 0C126.628 1.64229 126.628 3.21801 126.628 4.97127C124.542 4.97127 122.5 4.97127 120.458 4.97127C118.794 4.97127 118.794 4.97127 118.794 6.59137C118.794 10.5639 118.816 14.5587 118.771 18.5313C118.771 19.419 119.038 19.6853 119.925 19.7075C165.288 21.3054 204.126 53.4411 214.268 97.8496C215.134 101.6 215.6 105.418 216.199 109.235C216.355 110.167 216.599 110.611 217.686 110.589C221.659 110.522 225.654 110.544 229.626 110.566C231.734 110.566 232.6 111.476 232.578 113.607C232.533 125.769 223.057 136.843 211.028 138.752C209.319 139.018 207.588 139.195 205.879 139.195C146.158 139.218 86.4359 139.218 26.7141 139.218C14.2193 139.218 3.89951 131.406 0.859045 119.577C0.370796 117.646 0.171057 115.626 0.0157049 113.629C-0.139647 111.543 0.859045 110.589 2.9452 110.566C6.96216 110.544 10.9791 110.544 14.9961 110.589C15.9282 110.611 16.2611 110.256 16.3499 109.368C20.1005 73.992 42.4268 44.3419 72.4098 29.7166C82.4411 24.8341 93.005 21.6605 104.124 20.3955C106.987 20.0626 109.872 19.8851 112.757 19.7075C113.512 19.6631 113.8 19.4634 113.8 18.6644C113.778 14.4477 113.778 10.231 113.8 6.01435C113.8 5.21539 113.512 4.94907 112.757 4.97127C110.826 4.99346 108.895 4.94907 106.965 4.99346C106.21 5.01565 105.877 4.77153 105.899 3.97258C105.966 2.64099 105.921 1.33159 105.921 0ZM211.494 110.5C207.078 78.475 191.631 53.7962 163.846 37.4842C131.399 18.4647 90.8745 20.6174 60.6918 42.6774C37.7219 59.4555 24.8055 82.1813 21.188 110.478C84.7048 110.5 147.889 110.5 211.494 110.5ZM4.85381 115.626C5.71935 118.09 6.25198 120.42 7.33945 122.484C11.5118 130.407 18.2585 134.158 27.1579 134.158C86.5912 134.158 146.025 134.158 205.436 134.158C205.68 134.158 205.924 134.158 206.168 134.158C216.11 133.98 224.189 127.921 226.763 118.689C227.03 117.713 227.207 116.714 227.429 115.626C153.282 115.626 79.3119 115.626 4.85381 115.626Z" fill="#FA0064"/>
</g>
<defs>
<clipPath id="clip0_3522_586">
<rect width="661" height="191" fill="white"/>
</clipPath>
</defs>
</svg>
