<svg width="130" height="103" viewBox="0 0 130 103" fill="none" xmlns="http://www.w3.org/2000/svg">
<g clip-path="url(#clip0_5322_2270)">
<path d="M0.0820312 83.9863H1.98526V100.3H12.0823V101.936H0.0820312V83.9863Z" fill="#FA0064"/>
<path d="M30.176 97.1502H20.1284L17.9657 101.948H15.9883L24.2315 83.9863H26.11L34.3532 101.936H32.3388L30.176 97.1502ZM29.4839 95.6001L25.1584 85.9548L20.8329 95.6001H29.4839Z" fill="#FA0064"/>
<path d="M50.4928 101.936L46.3774 96.166C45.9077 96.2152 45.4381 96.2398 44.9314 96.2398H40.0868V101.936H38.1836V83.9863H44.9314C47.2301 83.9863 49.0345 84.5276 50.3445 85.6226C51.6545 86.7175 52.2972 88.2185 52.2972 90.1377C52.2972 91.5402 51.9388 92.7213 51.222 93.6932C50.5052 94.6651 49.4917 95.354 48.1694 95.7846L52.569 101.936H50.4928ZM48.9727 93.4471C49.9119 92.6598 50.3939 91.5525 50.3939 90.1377C50.3939 88.686 49.9243 87.5664 48.9727 86.7913C48.0334 86.0163 46.6616 85.6226 44.882 85.6226H40.0868V94.6282H44.882C46.6616 94.6282 48.0334 94.2345 48.9727 93.4471Z" fill="#FA0064"/>
<path d="M61.9123 93.5086L58.2294 97.2241V101.948H56.3262V83.9863H58.2294V94.8373L68.8208 83.9863H71.0082L63.1976 92.1184L71.5397 101.936H69.278L61.9123 93.5086Z" fill="#FA0064"/>
<path d="M84.6389 95.7354V101.936H82.7604V95.7354L75.543 83.9863H77.5821L83.7615 94.0623L89.9408 83.9863H91.844L84.6389 95.7354Z" fill="#FA0064"/>
<path d="M90.2138 101.653C89.9419 101.382 89.8184 101.05 89.8184 100.657C89.8184 100.263 89.9543 99.9306 90.2138 99.6723C90.4857 99.4016 90.807 99.2786 91.1778 99.2786C91.5609 99.2786 91.8822 99.4139 92.1541 99.6723C92.426 99.9429 92.562 100.263 92.562 100.657C92.562 101.05 92.426 101.382 92.1541 101.653C91.8822 101.924 91.5486 102.059 91.1778 102.059C90.807 102.071 90.4857 101.936 90.2138 101.653Z" fill="#FA0064"/>
<path d="M99.1111 100.915C97.6775 100.127 96.5528 99.0449 95.7372 97.6423C94.9215 96.2521 94.5137 94.6897 94.5137 92.9673C94.5137 91.2449 94.9215 89.6825 95.7372 88.2923C96.5528 86.9021 97.6775 85.8071 99.1234 85.0198C100.569 84.2324 102.176 83.8387 103.968 83.8387C105.303 83.8387 106.539 84.0601 107.676 84.503C108.813 84.9459 109.777 85.598 110.555 86.4469L109.344 87.6525C107.935 86.2377 106.155 85.5242 104.017 85.5242C102.596 85.5242 101.299 85.844 100.124 86.4961C98.9504 87.1481 98.0359 88.0339 97.3809 89.1658C96.7135 90.2976 96.3922 91.5648 96.3922 92.955C96.3922 94.3575 96.7259 95.6247 97.3809 96.7442C98.0359 97.8761 98.9504 98.7619 100.124 99.4139C101.286 100.066 102.584 100.386 104.017 100.386C106.18 100.386 107.96 99.6723 109.344 98.2329L110.555 99.4385C109.764 100.287 108.8 100.952 107.663 101.395C106.526 101.85 105.278 102.071 103.943 102.071C102.164 102.096 100.545 101.702 99.1111 100.915Z" fill="#FA0064"/>
<path d="M129.526 83.9863V101.936H127.648V93.6563H116.364V101.936H114.461V83.9863H116.364V91.9831H127.648V83.9863H129.526Z" fill="#FA0064"/>
<path d="M58.9842 0.5C62.8771 0.5 66.6836 0.5 70.5148 0.5C70.5148 1.4104 70.5148 2.2839 70.5148 3.25581C69.3531 3.25581 68.2161 3.25581 67.0791 3.25581C66.1522 3.25581 66.1522 3.25581 66.1522 4.15391C66.1522 6.3561 66.1645 8.57059 66.1398 10.7728C66.1398 11.2649 66.2881 11.4125 66.7825 11.4248C92.0435 12.3106 113.671 30.125 119.319 54.7427C119.801 56.8219 120.061 58.938 120.394 61.054C120.481 61.5708 120.617 61.8168 121.222 61.8045C123.434 61.7676 125.659 61.7799 127.871 61.7922C129.045 61.7922 129.527 62.2966 129.515 63.4777C129.49 70.2196 124.213 76.3586 117.515 77.4167C116.563 77.5643 115.599 77.6627 114.647 77.6627C81.3904 77.675 48.1333 77.675 14.8762 77.675C7.91827 77.675 2.17151 73.3445 0.478374 66.7871C0.206484 65.7168 0.095256 64.5972 0.00874557 63.49C-0.0777649 62.3335 0.478374 61.8045 1.64009 61.7922C3.877 61.7799 6.11391 61.7799 8.35083 61.8045C8.86989 61.8168 9.05527 61.62 9.1047 61.1279C11.1933 41.5173 23.6261 25.0809 40.3226 16.9734C45.9087 14.2668 51.7914 12.5075 57.9831 11.8062C59.5774 11.6217 61.184 11.5232 62.7906 11.4248C63.2108 11.4002 63.3715 11.2895 63.3715 10.8466C63.3591 8.50908 63.3591 6.17156 63.3715 3.83404C63.3715 3.39114 63.2108 3.24351 62.7906 3.25581C61.7154 3.26811 60.6402 3.24351 59.565 3.26811C59.1448 3.28042 58.9594 3.14509 58.9718 2.70219C59.0089 1.96403 58.9842 1.23816 58.9842 0.5ZM117.774 61.7553C115.315 44.0025 106.713 30.3218 91.2402 21.2793C73.1719 10.7359 50.605 11.9292 33.7973 24.1582C21.0061 33.459 13.8133 46.057 11.7989 61.743C47.1693 61.7553 82.3543 61.7553 117.774 61.7553ZM2.70293 64.5972C3.18492 65.9628 3.48152 67.2546 4.0871 68.3988C6.41052 72.7908 10.1675 74.87 15.1234 74.87C48.2198 74.87 81.3162 74.87 114.4 74.87C114.536 74.87 114.672 74.87 114.808 74.87C120.345 74.7716 124.843 71.4129 126.277 66.295C126.425 65.7537 126.524 65.2001 126.648 64.5972C85.3575 64.5972 44.1662 64.5972 2.70293 64.5972Z" fill="#FA0064"/>
</g>
<defs>
<clipPath id="clip0_5322_2270">
<rect width="129.75" height="102" fill="white" transform="translate(0 0.5)"/>
</clipPath>
</defs>
</svg>
