<svg width="61" height="48" viewBox="0 0 61 48" fill="none" xmlns="http://www.w3.org/2000/svg">
    <path d="M0.0390625 38.8488H0.920689V46.44H5.59789V47.2014H0.0390625V38.8488Z" fill="#FA0064"/>
    <path d="M13.9784 44.9744H9.32407L8.32223 47.2071H7.40625L11.2247 38.8488H12.0949L15.9134 47.2014H14.9802L13.9784 44.9744ZM13.6578 44.2531L11.6541 39.7648L9.65039 44.2531H13.6578Z" fill="#FA0064"/>
    <path d="M23.3914 47.2014L21.485 44.5164C21.2675 44.5393 21.0499 44.5508 20.8152 44.5508H18.5711V47.2014H17.6895V38.8488H20.8152C21.88 38.8488 22.7159 39.1007 23.3227 39.6102C23.9295 40.1197 24.2272 40.8182 24.2272 41.7112C24.2272 42.3639 24.0612 42.9135 23.7292 43.3657C23.3971 43.818 22.9277 44.1386 22.3151 44.3389L24.3532 47.2014H23.3914ZM22.6872 43.2512C23.1223 42.8848 23.3456 42.3696 23.3456 41.7112C23.3456 41.0357 23.1281 40.5147 22.6872 40.1541C22.2522 39.7934 21.6167 39.6102 20.7923 39.6102H18.5711V43.8008H20.7923C21.6167 43.8008 22.2522 43.6176 22.6872 43.2512Z" fill="#FA0064"/>
    <path d="M28.6814 43.2799L26.9754 45.0088V47.2071H26.0938V38.8488H26.9754V43.8981L31.8816 38.8488H32.8949L29.2768 42.6329L33.141 47.2014H32.0934L28.6814 43.2799Z" fill="#FA0064"/>
    <path d="M39.2096 44.316V47.2014H38.3394V44.316L34.9961 38.8488H35.9407L38.8031 43.5375L41.6655 38.8488H42.5472L39.2096 44.316Z" fill="#FA0064"/>
    <path d="M41.7906 47.0697C41.6647 46.9438 41.6074 46.7892 41.6074 46.606C41.6074 46.4228 41.6704 46.2683 41.7906 46.148C41.9166 46.0221 42.0654 45.9648 42.2372 45.9648C42.4146 45.9648 42.5635 46.0278 42.6894 46.148C42.8154 46.274 42.8783 46.4228 42.8783 46.606C42.8783 46.7892 42.8154 46.9438 42.6894 47.0697C42.5635 47.1957 42.4089 47.2587 42.2372 47.2587C42.0654 47.2644 41.9166 47.2014 41.7906 47.0697Z" fill="#FA0064"/>
    <path d="M45.9128 46.7262C45.2488 46.3599 44.7278 45.8561 44.35 45.2034C43.9721 44.5565 43.7832 43.8295 43.7832 43.028C43.7832 42.2265 43.9721 41.4995 44.35 40.8525C44.7278 40.2056 45.2488 39.6961 45.9186 39.3297C46.5884 38.9633 47.3326 38.7802 48.1627 38.7802C48.781 38.7802 49.3535 38.8832 49.8802 39.0893C50.4069 39.2954 50.8534 39.5988 51.2141 39.9938L50.653 40.5549C50.0004 39.8965 49.176 39.5645 48.1856 39.5645C47.5273 39.5645 46.9261 39.7133 46.3823 40.0167C45.8384 40.3201 45.4148 40.7323 45.1114 41.259C44.8022 41.7857 44.6534 42.3754 44.6534 43.0223C44.6534 43.6749 44.8079 44.2646 45.1114 44.7855C45.4148 45.3122 45.8384 45.7244 46.3823 46.0278C46.9204 46.3312 47.5215 46.4801 48.1856 46.4801C49.1875 46.4801 50.0118 46.148 50.653 45.4782L51.2141 46.0393C50.8477 46.4343 50.4011 46.7434 49.8744 46.9495C49.3478 47.1613 48.7695 47.2644 48.1513 47.2644C47.3269 47.2758 46.5769 47.0926 45.9128 46.7262Z" fill="#FA0064"/>
    <path d="M60.002 38.8488V47.2014H59.1319V43.3485H53.9051V47.2014H53.0234V38.8488H53.9051V42.57H59.1319V38.8488H60.002Z" fill="#FA0064"/>
    <path d="M27.323 0C29.1264 0 30.8896 0 32.6643 0C32.6643 0.423639 32.6643 0.830103 32.6643 1.28237C32.1262 1.28237 31.5995 1.28237 31.0728 1.28237C30.6434 1.28237 30.6434 1.28237 30.6434 1.70028C30.6434 2.72503 30.6492 3.7555 30.6377 4.78025C30.6377 5.00924 30.7064 5.07794 30.9354 5.08367C42.637 5.49586 52.6555 13.7854 55.2717 25.2409C55.495 26.2084 55.6152 27.193 55.7698 28.1777C55.8099 28.4182 55.8729 28.5327 56.1534 28.5269C57.1781 28.5098 58.2086 28.5155 59.2333 28.5212C59.7772 28.5212 60.0005 28.7559 59.9947 29.3055C59.9833 32.4427 57.5388 35.2994 54.4359 35.7918C53.9951 35.8605 53.5486 35.9063 53.1078 35.9063C37.7022 35.912 22.2966 35.912 6.89105 35.912C3.66795 35.912 1.0059 33.8968 0.221595 30.8455C0.0956488 30.3474 0.0441251 29.8265 0.00405118 29.3112C-0.0360228 28.7731 0.221595 28.5269 0.759731 28.5212C1.79593 28.5155 2.83213 28.5155 3.86832 28.5269C4.10877 28.5327 4.19464 28.4411 4.21754 28.2121C5.18504 19.0867 10.9442 11.4383 18.6785 7.66557C21.2661 6.40611 23.9912 5.58745 26.8593 5.26114C27.5978 5.17526 28.3421 5.12947 29.0863 5.08367C29.2809 5.07222 29.3554 5.02069 29.3554 4.8146C29.3496 3.72688 29.3496 2.63916 29.3554 1.55143C29.3554 1.34534 29.2809 1.27664 29.0863 1.28237C28.5882 1.28809 28.0902 1.27664 27.5921 1.28809C27.3975 1.29382 27.3116 1.23084 27.3173 1.02475C27.3345 0.681257 27.323 0.343491 27.323 0ZM54.5561 28.504C53.4169 20.2431 49.4324 13.877 42.2649 9.66927C33.8952 4.76308 23.4416 5.31839 15.6558 11.0089C9.73057 15.3369 6.39871 21.1991 5.46556 28.4983C21.8501 28.504 38.1487 28.504 54.5561 28.504ZM1.25207 29.8265C1.47534 30.4619 1.61273 31.063 1.89325 31.5954C2.96952 33.6392 4.70988 34.6067 7.00554 34.6067C22.3367 34.6067 37.6678 34.6067 52.9933 34.6067C53.0562 34.6067 53.1192 34.6067 53.1822 34.6067C55.7469 34.5609 57.8308 32.998 58.4948 30.6165C58.5635 30.3646 58.6093 30.107 58.6666 29.8265C39.5399 29.8265 20.4589 29.8265 1.25207 29.8265Z" fill="#FA0064"/>
</svg>
