<svg width="219" height="165" viewBox="0 0 219 165" fill="none" xmlns="http://www.w3.org/2000/svg">
    <path d="M36.1731 107.415H32.5551V120.015H36.1731C40.0791 120.015 42.4011 117.351 42.4011 113.715C42.4011 110.079 40.0791 107.415 36.1731 107.415ZM36.0831 118.575H34.0671V108.855H36.0831C39.1611 108.855 40.7811 111.033 40.7811 113.715C40.7811 116.397 39.1611 118.575 36.0831 118.575ZM44.507 120.015H46.019V111.699H44.507V120.015ZM44.237 109.035C44.237 109.593 44.705 110.061 45.263 110.061C45.821 110.061 46.289 109.593 46.289 109.035C46.289 108.477 45.821 108.009 45.263 108.009C44.705 108.009 44.237 108.477 44.237 109.035ZM52.1783 111.483C49.6763 111.483 48.0203 113.427 48.0203 115.857C48.0203 118.323 49.8383 120.231 52.3583 120.231C54.5543 120.231 55.8143 118.593 55.8143 118.593L54.8603 117.603C54.8603 117.603 53.9963 118.827 52.3583 118.827C50.7923 118.827 49.5863 117.657 49.4963 116.397H56.2103C56.2283 116.199 56.2283 116.073 56.2283 115.911C56.2283 113.229 54.5003 111.483 52.1783 111.483ZM49.5323 115.137C49.6403 114.273 50.3783 112.887 52.1783 112.887C53.8523 112.887 54.6983 114.201 54.7523 115.137H49.5323ZM63.3168 120.015H67.2588C69.7428 120.015 71.3628 118.611 71.3628 116.415C71.3628 113.913 69.4368 113.355 69.2568 113.319C69.4368 113.283 70.6788 112.563 70.6788 110.853C70.6788 108.747 69.2208 107.415 66.6288 107.415H63.3168V120.015ZM67.2588 118.575H64.8288V114.255H67.2588C69.0588 114.255 69.8508 115.227 69.8508 116.415C69.8508 117.603 69.0588 118.575 67.2588 118.575ZM64.8288 112.851V108.855H66.8808C68.3028 108.855 69.1668 109.629 69.1668 110.853C69.1668 112.077 68.3028 112.851 66.8808 112.851H64.8288ZM76.7174 111.483C74.2154 111.483 72.5594 113.427 72.5594 115.857C72.5594 118.323 74.3774 120.231 76.8974 120.231C79.0934 120.231 80.3534 118.593 80.3534 118.593L79.3994 117.603C79.3994 117.603 78.5354 118.827 76.8974 118.827C75.3314 118.827 74.1254 117.657 74.0354 116.397H80.7494C80.7674 116.199 80.7674 116.073 80.7674 115.911C80.7674 113.229 79.0394 111.483 76.7174 111.483ZM74.0714 115.137C74.1794 114.273 74.9174 112.887 76.7174 112.887C78.3914 112.887 79.2374 114.201 79.2914 115.137H74.0714ZM81.947 118.485C81.947 118.485 83.171 120.231 85.511 120.231C87.113 120.231 88.805 119.403 88.805 117.801C88.805 116.109 87.455 115.515 85.871 115.173C84.503 114.885 83.855 114.543 83.855 113.913C83.855 113.373 84.377 112.851 85.439 112.851C86.699 112.851 87.527 113.769 87.527 113.769L88.517 112.743C88.517 112.743 87.401 111.483 85.439 111.483C83.585 111.483 82.379 112.671 82.379 113.877C82.379 115.443 83.639 116.145 85.421 116.505C86.699 116.757 87.311 117.117 87.311 117.837C87.311 118.503 86.357 118.863 85.511 118.863C83.873 118.863 82.991 117.513 82.991 117.513L81.947 118.485ZM89.9584 113.067H91.5784V117.621C91.5784 119.457 92.8924 120.231 94.0804 120.231C94.5664 120.231 95.0884 120.123 95.8084 119.727L95.2504 118.485C95.2504 118.485 94.7644 118.827 94.2964 118.827C93.4864 118.827 93.0904 118.359 93.0904 117.549V113.067H95.6824V111.699H93.0904V109.161H91.5784V111.699H89.9584V113.067ZM101.028 111.483C98.5259 111.483 96.8699 113.427 96.8699 115.857C96.8699 118.323 98.6879 120.231 101.208 120.231C103.404 120.231 104.664 118.593 104.664 118.593L103.71 117.603C103.71 117.603 102.846 118.827 101.208 118.827C99.6419 118.827 98.4359 117.657 98.3459 116.397H105.06C105.078 116.199 105.078 116.073 105.078 115.911C105.078 113.229 103.35 111.483 101.028 111.483ZM98.3819 115.137C98.4899 114.273 99.2279 112.887 101.028 112.887C102.702 112.887 103.548 114.201 103.602 115.137H98.3819ZM107.122 120.015H108.634V106.407H107.122V120.015ZM111.586 120.015H113.098V106.407H111.586V120.015ZM115.727 111.699V124.155H117.239V118.989C117.527 119.367 118.391 120.231 119.921 120.231C122.171 120.231 123.953 118.305 123.953 115.857C123.953 113.409 122.171 111.483 119.921 111.483C117.941 111.483 117.113 112.905 117.113 112.905V111.699H115.727ZM117.239 114.309C117.239 114.309 118.031 112.887 119.687 112.887C121.379 112.887 122.441 114.219 122.441 115.857C122.441 117.495 121.379 118.827 119.687 118.827C118.031 118.827 117.239 117.405 117.239 117.405V114.309ZM126 120.015H127.512V106.407H126V120.015ZM136.279 117.423C136.279 117.423 135.469 118.827 133.849 118.827C132.157 118.827 131.077 117.495 131.077 115.857C131.077 114.219 132.157 112.887 133.849 112.887C135.469 112.887 136.279 114.291 136.279 114.291V117.423ZM136.405 111.699V112.905C136.405 112.905 135.595 111.483 133.561 111.483C131.347 111.483 129.565 113.409 129.565 115.857C129.565 118.305 131.347 120.231 133.561 120.231C135.595 120.231 136.405 118.809 136.405 118.809V120.015H137.791V111.699H136.405ZM139.37 113.067H140.99V117.621C140.99 119.457 142.304 120.231 143.492 120.231C143.978 120.231 144.5 120.123 145.22 119.727L144.662 118.485C144.662 118.485 144.176 118.827 143.708 118.827C142.898 118.827 142.502 118.359 142.502 117.549V113.067H145.094V111.699H142.502V109.161H140.99V111.699H139.37V113.067ZM146.138 113.067H147.758V117.621C147.758 119.457 149.072 120.231 150.26 120.231C150.746 120.231 151.268 120.123 151.988 119.727L151.43 118.485C151.43 118.485 150.944 118.827 150.476 118.827C149.666 118.827 149.27 118.359 149.27 117.549V113.067H151.862V111.699H149.27V109.161H147.758V111.699H146.138V113.067ZM152.834 113.067H154.562V120.015H156.074V113.067H158.234V111.699H156.074V108.927C156.074 108.117 156.524 107.595 157.334 107.595C157.802 107.595 158.306 107.919 158.306 107.919L158.864 106.677C158.144 106.281 157.604 106.191 157.118 106.191C155.93 106.191 154.562 107.073 154.562 108.837V111.699H152.834V113.067ZM163.293 111.483C160.845 111.483 159.009 113.409 159.009 115.857C159.009 118.305 160.845 120.231 163.293 120.231C165.741 120.231 167.577 118.305 167.577 115.857C167.577 113.409 165.741 111.483 163.293 111.483ZM163.293 118.827C161.619 118.827 160.521 117.495 160.521 115.857C160.521 114.219 161.619 112.887 163.293 112.887C164.967 112.887 166.065 114.219 166.065 115.857C166.065 117.495 164.967 118.827 163.293 118.827ZM173.031 111.483C171.447 111.483 170.709 112.977 170.709 112.977V111.699H169.305V120.015H170.817V114.291C170.817 114.291 171.411 112.887 172.725 112.887C173.355 112.887 173.679 113.067 173.679 113.067L174.237 111.699C174.237 111.699 173.715 111.483 173.031 111.483ZM184.207 111.483C182.389 111.483 181.723 113.031 181.723 113.031C181.723 113.031 181.201 111.483 179.131 111.483C177.439 111.483 176.827 112.923 176.827 112.923V111.699H175.423V120.015H176.935V114.219C176.935 114.219 177.493 112.887 178.717 112.887C179.797 112.887 180.499 113.553 180.499 114.903V120.015H182.011V114.219C182.011 114.219 182.551 112.887 183.793 112.887C184.873 112.887 185.575 113.553 185.575 114.903V120.015H187.087V114.669C187.087 112.617 185.935 111.483 184.207 111.483ZM4.73202 131.483C2.48202 131.483 0.700023 133.409 0.700023 135.857C0.700023 138.305 2.48202 140.231 4.73202 140.231C6.73002 140.231 7.54002 138.809 7.54002 138.809V140.015H8.92602V126.407H7.41402V132.725C7.41402 132.725 6.56802 131.483 4.73202 131.483ZM7.41402 137.387C7.41402 137.387 6.62202 138.827 4.96602 138.827C3.27402 138.827 2.21202 137.495 2.21202 135.857C2.21202 134.219 3.31002 132.887 4.96602 132.887C6.62202 132.887 7.41402 134.327 7.41402 134.327V137.387ZM15.1412 131.483C12.6392 131.483 10.9832 133.427 10.9832 135.857C10.9832 138.323 12.8012 140.231 15.3212 140.231C17.5172 140.231 18.7772 138.593 18.7772 138.593L17.8232 137.603C17.8232 137.603 16.9592 138.827 15.3212 138.827C13.7552 138.827 12.5492 137.657 12.4592 136.397H19.1732C19.1912 136.199 19.1912 136.073 19.1912 135.911C19.1912 133.229 17.4632 131.483 15.1412 131.483ZM12.4952 135.137C12.6032 134.273 13.3412 132.887 15.1412 132.887C16.8152 132.887 17.6612 134.201 17.7152 135.137H12.4952ZM24.6368 131.483C23.0528 131.483 22.3148 132.977 22.3148 132.977V131.699H20.9108V140.015H22.4228V134.291C22.4228 134.291 23.0168 132.887 24.3308 132.887C24.9608 132.887 25.2848 133.067 25.2848 133.067L25.8428 131.699C25.8428 131.699 25.3208 131.483 24.6368 131.483ZM38.1929 136.811C38.1929 138.107 37.0409 138.791 35.8349 138.791C33.8369 138.791 33.0809 136.847 33.0809 136.847L31.8209 137.603C31.8209 137.603 32.8469 140.231 35.8349 140.231C38.0489 140.231 39.7409 138.863 39.7409 136.811C39.7409 134.777 38.5349 133.967 36.6089 133.085C34.8809 132.293 33.8009 131.789 33.8009 130.511C33.8009 129.611 34.5389 128.639 35.9249 128.639C37.4909 128.639 38.3729 129.953 38.3729 129.953L39.5069 129.035C39.5069 129.035 38.3009 127.199 35.9249 127.199C33.5129 127.199 32.2889 129.035 32.2889 130.511C32.2889 132.653 33.9089 133.499 35.7449 134.345C37.1489 134.993 38.1929 135.497 38.1929 136.811ZM47.9668 137.639C47.9668 137.639 47.1568 138.827 45.5368 138.827C43.8628 138.827 42.7648 137.495 42.7648 135.857C42.7648 134.219 43.8628 132.887 45.5368 132.887C47.0128 132.887 47.8228 133.895 47.8228 133.895L48.8488 132.977C48.8488 132.977 47.6608 131.483 45.5368 131.483C43.0888 131.483 41.2528 133.427 41.2528 135.857C41.2528 138.305 43.0888 140.231 45.5368 140.231C47.7328 140.231 48.9388 138.629 48.9388 138.629L47.9668 137.639ZM54.6909 131.483C53.2509 131.483 52.4949 132.347 52.2429 132.707V126.407H50.7309V140.015H52.2429V134.291C52.2429 134.291 52.9629 132.887 54.3129 132.887C55.4289 132.887 56.3109 133.499 56.3109 134.921V140.015H57.8229V134.669C57.8229 132.617 56.3469 131.483 54.6909 131.483ZM59.1196 131.699L62.9176 140.375L65.6536 134.129L68.3896 140.375L72.1876 131.699H70.6396L68.4256 137.081L66.2116 131.699H65.1856L62.9896 137.081L60.7576 131.699H59.1196ZM76.9283 131.483C74.4263 131.483 72.7703 133.427 72.7703 135.857C72.7703 138.323 74.5883 140.231 77.1083 140.231C79.3043 140.231 80.5643 138.593 80.5643 138.593L79.6103 137.603C79.6103 137.603 78.7463 138.827 77.1083 138.827C75.5423 138.827 74.3363 137.657 74.2463 136.397H80.9603C80.9783 136.199 80.9783 136.073 80.9783 135.911C80.9783 133.229 79.2503 131.483 76.9283 131.483ZM74.2823 135.137C74.3903 134.273 75.1283 132.887 76.9283 132.887C78.6023 132.887 79.4483 134.201 79.5023 135.137H74.2823ZM82.9679 140.015H84.4799V131.699H82.9679V140.015ZM82.6979 129.035C82.6979 129.593 83.1659 130.061 83.7239 130.061C84.2819 130.061 84.7499 129.593 84.7499 129.035C84.7499 128.477 84.2819 128.009 83.7239 128.009C83.1659 128.009 82.6979 128.477 82.6979 129.035ZM86.7693 131.699V133.103H91.2873L86.5173 140.015H93.7533V138.611H89.1813L93.9513 131.699H86.7693ZM99.0944 131.483C96.5924 131.483 94.9364 133.427 94.9364 135.857C94.9364 138.323 96.7544 140.231 99.2744 140.231C101.47 140.231 102.73 138.593 102.73 138.593L101.776 137.603C101.776 137.603 100.912 138.827 99.2744 138.827C97.7084 138.827 96.5024 137.657 96.4124 136.397H103.126C103.144 136.199 103.144 136.073 103.144 135.911C103.144 133.229 101.416 131.483 99.0944 131.483ZM96.4484 135.137C96.5564 134.273 97.2944 132.887 99.0944 132.887C100.768 132.887 101.614 134.201 101.668 135.137H96.4484ZM108.59 131.483C107.006 131.483 106.268 132.977 106.268 132.977V131.699H104.864V140.015H106.376V134.291C106.376 134.291 106.97 132.887 108.284 132.887C108.914 132.887 109.238 133.067 109.238 133.067L109.796 131.699C109.796 131.699 109.274 131.483 108.59 131.483ZM122.128 134.543H125.278V137.873C125.278 137.873 124.126 138.791 121.822 138.791C119.086 138.791 117.178 136.397 117.178 133.715C117.178 131.033 119.086 128.639 121.822 128.639C124.144 128.639 125.35 130.043 125.35 130.043L126.43 128.981C126.43 128.981 125.08 127.199 121.822 127.199C118.186 127.199 115.558 130.079 115.558 133.715C115.558 137.351 118.186 140.231 121.822 140.231C125.098 140.231 126.772 138.575 126.772 138.575V133.103H122.128V134.543ZM135.066 137.423C135.066 137.423 134.256 138.827 132.636 138.827C130.944 138.827 129.864 137.495 129.864 135.857C129.864 134.219 130.944 132.887 132.636 132.887C134.256 132.887 135.066 134.291 135.066 134.291V137.423ZM135.192 131.699V132.905C135.192 132.905 134.382 131.483 132.348 131.483C130.134 131.483 128.352 133.409 128.352 135.857C128.352 138.305 130.134 140.231 132.348 140.231C134.382 140.231 135.192 138.809 135.192 138.809V140.015H136.578V131.699H135.192ZM138.338 138.485C138.338 138.485 139.562 140.231 141.902 140.231C143.504 140.231 145.196 139.403 145.196 137.801C145.196 136.109 143.846 135.515 142.262 135.173C140.894 134.885 140.246 134.543 140.246 133.913C140.246 133.373 140.768 132.851 141.83 132.851C143.09 132.851 143.918 133.769 143.918 133.769L144.908 132.743C144.908 132.743 143.792 131.483 141.83 131.483C139.976 131.483 138.77 132.671 138.77 133.877C138.77 135.443 140.03 136.145 141.812 136.505C143.09 136.757 143.702 137.117 143.702 137.837C143.702 138.503 142.748 138.863 141.902 138.863C140.264 138.863 139.382 137.513 139.382 137.513L138.338 138.485ZM146.349 133.067H147.969V137.621C147.969 139.457 149.283 140.231 150.471 140.231C150.957 140.231 151.479 140.123 152.199 139.727L151.641 138.485C151.641 138.485 151.155 138.827 150.687 138.827C149.877 138.827 149.481 138.359 149.481 137.549V133.067H152.073V131.699H149.481V129.161H147.969V131.699H146.349V133.067ZM157.563 131.483C155.979 131.483 155.241 132.977 155.241 132.977V131.699H153.837V140.015H155.349V134.291C155.349 134.291 155.943 132.887 157.257 132.887C157.887 132.887 158.211 133.067 158.211 133.067L158.769 131.699C158.769 131.699 158.247 131.483 157.563 131.483ZM163.381 131.483C160.933 131.483 159.097 133.409 159.097 135.857C159.097 138.305 160.933 140.231 163.381 140.231C165.829 140.231 167.665 138.305 167.665 135.857C167.665 133.409 165.829 131.483 163.381 131.483ZM163.381 138.827C161.707 138.827 160.609 137.495 160.609 135.857C160.609 134.219 161.707 132.887 163.381 132.887C165.055 132.887 166.153 134.219 166.153 135.857C166.153 137.495 165.055 138.827 163.381 138.827ZM173.353 131.483C171.553 131.483 170.797 132.869 170.797 132.869V131.699H169.393V140.015H170.905V134.291C170.905 134.291 171.625 132.887 172.975 132.887C174.091 132.887 174.973 133.499 174.973 134.921V140.015H176.485V134.669C176.485 132.617 175.009 131.483 173.353 131.483ZM182.506 131.483C180.058 131.483 178.222 133.409 178.222 135.857C178.222 138.305 180.058 140.231 182.506 140.231C184.954 140.231 186.79 138.305 186.79 135.857C186.79 133.409 184.954 131.483 182.506 131.483ZM182.506 138.827C180.832 138.827 179.734 137.495 179.734 135.857C179.734 134.219 180.832 132.887 182.506 132.887C184.18 132.887 185.278 134.219 185.278 135.857C185.278 137.495 184.18 138.827 182.506 138.827ZM197.302 131.483C195.484 131.483 194.818 133.031 194.818 133.031C194.818 133.031 194.296 131.483 192.226 131.483C190.534 131.483 189.922 132.923 189.922 132.923V131.699H188.518V140.015H190.03V134.219C190.03 134.219 190.588 132.887 191.812 132.887C192.892 132.887 193.594 133.553 193.594 134.903V140.015H195.106V134.219C195.106 134.219 195.646 132.887 196.888 132.887C197.968 132.887 198.67 133.553 198.67 134.903V140.015H200.182V134.669C200.182 132.617 199.03 131.483 197.302 131.483ZM202.763 140.015H204.275V131.699H202.763V140.015ZM202.493 129.035C202.493 129.593 202.961 130.061 203.519 130.061C204.077 130.061 204.545 129.593 204.545 129.035C204.545 128.477 204.077 128.009 203.519 128.009C202.961 128.009 202.493 128.477 202.493 129.035ZM210.434 131.483C207.932 131.483 206.276 133.427 206.276 135.857C206.276 138.323 208.094 140.231 210.614 140.231C212.81 140.231 214.07 138.593 214.07 138.593L213.116 137.603C213.116 137.603 212.252 138.827 210.614 138.827C209.048 138.827 207.842 137.657 207.752 136.397H214.466C214.484 136.199 214.484 136.073 214.484 135.911C214.484 133.229 212.756 131.483 210.434 131.483ZM207.788 135.137C207.896 134.273 208.634 132.887 210.434 132.887C212.108 132.887 212.954 134.201 213.008 135.137H207.788ZM216.096 139.205C216.096 139.763 216.564 140.231 217.122 140.231C217.68 140.231 218.148 139.763 218.148 139.205C218.148 138.647 217.68 138.179 217.122 138.179C216.564 138.179 216.096 138.647 216.096 139.205ZM46.6392 156.811C46.6392 158.107 45.4872 158.791 44.2812 158.791C42.2832 158.791 41.5272 156.847 41.5272 156.847L40.2672 157.603C40.2672 157.603 41.2932 160.231 44.2812 160.231C46.4952 160.231 48.1872 158.863 48.1872 156.811C48.1872 154.777 46.9812 153.967 45.0552 153.085C43.3272 152.293 42.2472 151.789 42.2472 150.511C42.2472 149.611 42.9852 148.639 44.3712 148.639C45.9372 148.639 46.8192 149.953 46.8192 149.953L47.9532 149.035C47.9532 149.035 46.7472 147.199 44.3712 147.199C41.9592 147.199 40.7352 149.035 40.7352 150.511C40.7352 152.653 42.3552 153.499 44.1912 154.345C45.5952 154.993 46.6392 155.497 46.6392 156.811ZM56.413 157.639C56.413 157.639 55.603 158.827 53.983 158.827C52.309 158.827 51.211 157.495 51.211 155.857C51.211 154.219 52.309 152.887 53.983 152.887C55.459 152.887 56.269 153.895 56.269 153.895L57.295 152.977C57.295 152.977 56.107 151.483 53.983 151.483C51.535 151.483 49.699 153.427 49.699 155.857C49.699 158.305 51.535 160.231 53.983 160.231C56.179 160.231 57.385 158.629 57.385 158.629L56.413 157.639ZM63.1372 151.483C61.6972 151.483 60.9412 152.347 60.6892 152.707V146.407H59.1772V160.015H60.6892V154.291C60.6892 154.291 61.4092 152.887 62.7592 152.887C63.8752 152.887 64.7572 153.499 64.7572 154.921V160.015H66.2692V154.669C66.2692 152.617 64.7932 151.483 63.1372 151.483ZM72.5339 151.483C70.7339 151.483 69.9779 152.869 69.9779 152.869V151.699H68.5739V160.015H70.0859V154.291C70.0859 154.291 70.8059 152.887 72.1559 152.887C73.2719 152.887 74.1539 153.499 74.1539 154.921V160.015H75.6659V154.669C75.6659 152.617 74.1899 151.483 72.5339 151.483ZM81.5602 151.483C79.0582 151.483 77.4022 153.427 77.4022 155.857C77.4022 158.323 79.2202 160.231 81.7402 160.231C83.9362 160.231 85.1962 158.593 85.1962 158.593L84.2422 157.603C84.2422 157.603 83.3782 158.827 81.7402 158.827C80.1742 158.827 78.9682 157.657 78.8782 156.397H85.5922C85.6102 156.199 85.6102 156.073 85.6102 155.911C85.6102 153.229 83.8822 151.483 81.5602 151.483ZM78.9142 155.137C79.0222 154.273 79.7602 152.887 81.5602 152.887C83.2342 152.887 84.0802 154.201 84.1342 155.137H78.9142ZM87.6537 160.015H89.1657V146.407H87.6537V160.015ZM92.1186 160.015H93.6306V146.407H92.1186V160.015ZM95.5394 162.571L96.8174 163.021L98.3654 158.827L96.9974 158.359L95.5394 162.571ZM111.556 157.423C111.556 157.423 110.746 158.827 109.126 158.827C107.434 158.827 106.354 157.495 106.354 155.857C106.354 154.219 107.434 152.887 109.126 152.887C110.746 152.887 111.556 154.291 111.556 154.291V157.423ZM111.682 151.699V152.905C111.682 152.905 110.872 151.483 108.838 151.483C106.624 151.483 104.842 153.409 104.842 155.857C104.842 158.305 106.624 160.231 108.838 160.231C110.872 160.231 111.682 158.809 111.682 158.809V160.015H113.068V151.699H111.682ZM119.885 151.483C118.049 151.483 117.203 152.725 117.203 152.725V146.407H115.691V160.015H117.077V158.809C117.077 158.809 117.887 160.231 119.885 160.231C122.135 160.231 123.917 158.305 123.917 155.857C123.917 153.409 122.135 151.483 119.885 151.483ZM117.203 154.327C117.203 154.327 117.995 152.887 119.651 152.887C121.307 152.887 122.405 154.219 122.405 155.857C122.405 157.495 121.343 158.827 119.651 158.827C117.995 158.827 117.203 157.387 117.203 157.387V154.327ZM129.232 151.483C126.73 151.483 125.074 153.427 125.074 155.857C125.074 158.323 126.892 160.231 129.412 160.231C131.608 160.231 132.868 158.593 132.868 158.593L131.914 157.603C131.914 157.603 131.05 158.827 129.412 158.827C127.846 158.827 126.64 157.657 126.55 156.397H133.264C133.282 156.199 133.282 156.073 133.282 155.911C133.282 153.229 131.554 151.483 129.232 151.483ZM126.586 155.137C126.694 154.273 127.432 152.887 129.232 152.887C130.906 152.887 131.752 154.201 131.806 155.137H126.586ZM138.728 151.483C137.144 151.483 136.406 152.977 136.406 152.977V151.699H135.002V160.015H136.514V154.291C136.514 154.291 137.108 152.887 138.422 152.887C139.052 152.887 139.376 153.067 139.376 153.067L139.934 151.699C139.934 151.699 139.412 151.483 138.728 151.483ZM152.302 160.123C152.302 161.995 151.204 162.967 149.44 162.967C147.73 162.967 146.722 161.653 146.722 161.653L145.804 162.787C145.804 162.787 147.154 164.371 149.44 164.371C151.852 164.371 153.814 162.931 153.814 160.051V151.699H152.428V152.905C152.428 152.905 151.618 151.483 149.62 151.483C147.37 151.483 145.588 153.409 145.588 155.857C145.588 158.305 147.37 160.231 149.62 160.231C151.15 160.231 152.014 159.349 152.302 158.971V160.123ZM152.302 157.423C152.302 157.423 151.51 158.827 149.854 158.827C148.162 158.827 147.1 157.495 147.1 155.857C147.1 154.219 148.162 152.887 149.854 152.887C151.492 152.887 152.302 154.291 152.302 154.291V157.423ZM159.245 160.231C161.045 160.231 161.801 158.737 161.801 158.737V160.015H163.205V151.699H161.693V157.459C161.693 157.459 161.027 158.827 159.623 158.827C158.507 158.827 157.625 158.215 157.625 156.793V151.699H156.113V157.045C156.113 159.097 157.589 160.231 159.245 160.231ZM169.099 151.483C166.597 151.483 164.941 153.427 164.941 155.857C164.941 158.323 166.759 160.231 169.279 160.231C171.475 160.231 172.735 158.593 172.735 158.593L171.781 157.603C171.781 157.603 170.917 158.827 169.279 158.827C167.713 158.827 166.507 157.657 166.417 156.397H173.131C173.149 156.199 173.149 156.073 173.149 155.911C173.149 153.229 171.421 151.483 169.099 151.483ZM166.453 155.137C166.561 154.273 167.299 152.887 169.099 152.887C170.773 152.887 171.619 154.201 171.673 155.137H166.453ZM174.149 153.067H175.769V157.621C175.769 159.457 177.083 160.231 178.271 160.231C178.757 160.231 179.279 160.123 179.999 159.727L179.441 158.485C179.441 158.485 178.955 158.827 178.487 158.827C177.677 158.827 177.281 158.359 177.281 157.549V153.067H179.873V151.699H177.281V149.161H175.769V151.699H174.149V153.067ZM181.528 159.205C181.528 159.763 181.996 160.231 182.554 160.231C183.112 160.231 183.58 159.763 183.58 159.205C183.58 158.647 183.112 158.179 182.554 158.179C181.996 158.179 181.528 158.647 181.528 159.205Z" fill="#FA0064"/>
    <path d="M55.0723 73.1646H56.7326V87.4612H65.5413V88.8951H55.0723V73.1646Z" fill="#FA0064"/>
    <path d="M81.3266 84.701H72.5611L70.6743 88.9059H68.9492L76.1406 73.1646H77.7794L84.9708 88.8951H83.2134L81.3266 84.701ZM80.7228 83.3425L76.9492 74.8897L73.1756 83.3425H80.7228Z" fill="#FA0064"/>
    <path d="M99.0511 88.8951L95.4608 83.8385C95.0511 83.8816 94.6414 83.9032 94.1993 83.9032H89.9729V88.8951H88.3125V73.1646H94.1993C96.2047 73.1646 97.7788 73.639 98.9217 74.5986C100.065 75.5581 100.625 76.8735 100.625 78.5555C100.625 79.7846 100.313 80.8196 99.6872 81.6714C99.0619 82.5231 98.1778 83.1269 97.0241 83.5043L100.862 88.8951H99.0511ZM97.7249 81.4557C98.5443 80.7657 98.9648 79.7954 98.9648 78.5555C98.9648 77.2832 98.5551 76.3021 97.7249 75.6228C96.9055 74.9436 95.7087 74.5986 94.1562 74.5986H89.9729V82.4908H94.1562C95.7087 82.4908 96.9055 82.1458 97.7249 81.4557Z" fill="#FA0064"/>
    <path d="M109.012 81.5097L105.799 84.7657V88.9059H104.139V73.1646H105.799V82.6741L115.039 73.1646H116.947L110.133 80.2913L117.411 88.8951H115.438L109.012 81.5097Z" fill="#FA0064"/>
    <path d="M128.84 83.4611V88.8951H127.201V83.4611L120.904 73.1646H122.683L128.074 81.9948L133.465 73.1646H135.125L128.84 83.4611Z" fill="#FA0064"/>
    <path d="M133.702 88.6472C133.465 88.41 133.357 88.1189 133.357 87.7739C133.357 87.4289 133.476 87.1377 133.702 86.9113C133.94 86.6741 134.22 86.5663 134.543 86.5663C134.878 86.5663 135.158 86.6849 135.395 86.9113C135.632 87.1485 135.751 87.4289 135.751 87.7739C135.751 88.1189 135.632 88.41 135.395 88.6472C135.158 88.8844 134.867 89.003 134.543 89.003C134.22 89.0138 133.94 88.8952 133.702 88.6472Z" fill="#FA0064"/>
    <path d="M141.466 88.0003C140.215 87.3103 139.234 86.3615 138.522 85.1324C137.811 83.914 137.455 82.5447 137.455 81.0353C137.455 79.5259 137.811 78.1566 138.522 76.9383C139.234 75.7199 140.215 74.7604 141.477 74.0703C142.738 73.3803 144.14 73.0353 145.703 73.0353C146.868 73.0353 147.946 73.2294 148.938 73.6175C149.93 74.0056 150.77 74.5771 151.45 75.321L150.393 76.3776C149.164 75.1377 147.611 74.5124 145.746 74.5124C144.506 74.5124 143.374 74.7927 142.35 75.3641C141.326 75.9356 140.528 76.7118 139.956 77.7038C139.374 78.6957 139.094 79.8062 139.094 81.0245C139.094 82.2536 139.385 83.3642 139.956 84.3453C140.528 85.3372 141.326 86.1135 142.35 86.6849C143.363 87.2564 144.496 87.5367 145.746 87.5367C147.633 87.5367 149.186 86.9113 150.393 85.6499L151.45 86.7065C150.76 87.4504 149.919 88.0326 148.927 88.4208C147.935 88.8197 146.846 89.0138 145.682 89.0138C144.129 89.0353 142.717 88.6903 141.466 88.0003Z" fill="#FA0064"/>
    <path d="M168 73.1646V88.8951H166.362V81.639H156.518V88.8951H154.857V73.1646H156.518V80.1727H166.362V73.1646H168Z" fill="#FA0064"/>
    <path d="M106.458 0C109.854 0 113.175 0 116.517 0C116.517 0.797846 116.517 1.56335 116.517 2.4151C115.504 2.4151 114.512 2.4151 113.52 2.4151C112.711 2.4151 112.711 2.4151 112.711 3.20217C112.711 5.13209 112.722 7.0728 112.701 9.00273C112.701 9.43399 112.83 9.56337 113.261 9.57416C135.299 10.3504 154.167 25.9624 159.094 47.5365C159.515 49.3587 159.741 51.2131 160.032 53.0676C160.108 53.5204 160.226 53.736 160.755 53.7253C162.685 53.6929 164.625 53.7037 166.555 53.7145C167.579 53.7145 168 54.1565 167.989 55.1916C167.968 61.0999 163.364 66.48 157.52 67.4072C156.69 67.5366 155.849 67.6229 155.019 67.6229C126.005 67.6336 96.9916 67.6337 67.978 67.6337C61.9079 67.6337 56.8944 63.8385 55.4173 58.0918C55.1801 57.1538 55.0831 56.1727 55.0076 55.2023C54.9322 54.1889 55.4173 53.7253 56.4308 53.7145C58.3823 53.7037 60.3338 53.7037 62.2853 53.7253C62.7381 53.736 62.8998 53.5635 62.943 53.1323C64.7651 35.9462 75.6115 21.5419 90.1776 14.4367C95.0509 12.0647 100.183 10.5229 105.585 9.90839C106.975 9.74666 108.377 9.66041 109.779 9.57416C110.145 9.55259 110.285 9.45556 110.285 9.06742C110.275 7.01889 110.275 4.97037 110.285 2.92184C110.285 2.5337 110.145 2.40432 109.779 2.4151C108.841 2.42588 107.903 2.40432 106.965 2.42588C106.598 2.43667 106.436 2.31807 106.447 1.92993C106.479 1.28302 106.458 0.646902 106.458 0ZM157.747 53.6821C155.601 38.1241 148.097 26.1349 134.598 18.2103C118.835 8.97038 99.1479 10.0162 84.4848 20.7332C73.3257 28.8842 67.0508 39.9247 65.2934 53.6713C96.1506 53.6821 126.846 53.6821 157.747 53.6821ZM57.358 56.1727C57.7785 57.3695 58.0373 58.5015 58.5656 59.5042C60.5926 63.3533 63.8702 65.1754 68.1937 65.1754C97.0671 65.1754 125.94 65.1754 154.803 65.1754C154.922 65.1754 155.04 65.1754 155.159 65.1754C159.989 65.0892 163.914 62.1458 165.164 57.6606C165.294 57.1862 165.38 56.701 165.488 56.1727C129.466 56.1727 93.5307 56.1727 57.358 56.1727Z" fill="#FA0064"/>
</svg>
