<svg width="35" height="36" viewBox="0 0 35 36" fill="none" xmlns="http://www.w3.org/2000/svg">
    <path d="M0.799606 18.8C1.18621 18.8 1.49961 18.4866 1.49961 18.1C1.49961 17.7134 1.18621 17.4 0.799606 17.4C0.413007 17.4 0.0996094 17.7134 0.0996094 18.1C0.0996094 18.4866 0.413007 18.8 0.799606 18.8Z" fill="white"/>
    <path d="M1.10039 21.8C1.48699 21.8 1.80039 21.4866 1.80039 21.1C1.80039 20.7134 1.48699 20.4 1.10039 20.4C0.713792 20.4 0.400391 20.7134 0.400391 21.1C0.400391 21.4866 0.713792 21.8 1.10039 21.8Z" fill="white"/>
    <path d="M1.79961 24.6C2.18621 24.6 2.49961 24.2866 2.49961 23.9C2.49961 23.5134 2.18621 23.2 1.79961 23.2C1.41301 23.2 1.09961 23.5134 1.09961 23.9C1.09961 24.2866 1.41301 24.6 1.79961 24.6Z" fill="white"/>
    <path d="M3.10039 27.2C3.48699 27.2 3.80039 26.8866 3.80039 26.5C3.80039 26.1134 3.48699 25.8 3.10039 25.8C2.71379 25.8 2.40039 26.1134 2.40039 26.5C2.40039 26.8866 2.71379 27.2 3.10039 27.2Z" fill="white"/>
    <path d="M4.7 29.5C5.0866 29.5 5.4 29.1866 5.4 28.8C5.4 28.4134 5.0866 28.1 4.7 28.1C4.3134 28.1 4 28.4134 4 28.8C4 29.1866 4.3134 29.5 4.7 29.5Z" fill="white"/>
    <path d="M6.7 31.6C7.0866 31.6 7.4 31.2866 7.4 30.9C7.4 30.5134 7.0866 30.2 6.7 30.2C6.3134 30.2 6 30.5134 6 30.9C6 31.2866 6.3134 31.6 6.7 31.6Z" fill="white"/>
    <path d="M9.2 33.3C9.5866 33.3 9.9 32.9866 9.9 32.6C9.9 32.2134 9.5866 31.9 9.2 31.9C8.8134 31.9 8.5 32.2134 8.5 32.6C8.5 32.9866 8.8134 33.3 9.2 33.3Z" fill="white"/>
    <path d="M11.7996 34.5C12.1862 34.5 12.4996 34.1866 12.4996 33.8C12.4996 33.4134 12.1862 33.1 11.7996 33.1C11.413 33.1 11.0996 33.4134 11.0996 33.8C11.0996 34.1866 11.413 34.5 11.7996 34.5Z" fill="white"/>
    <path d="M14.6004 35.3C14.987 35.3 15.3004 34.9866 15.3004 34.6C15.3004 34.2134 14.987 33.9 14.6004 33.9C14.2138 33.9 13.9004 34.2134 13.9004 34.6C13.9004 34.9866 14.2138 35.3 14.6004 35.3Z" fill="white"/>
    <path d="M17.4988 35.5C17.8854 35.5 18.1988 35.1866 18.1988 34.8C18.1988 34.4134 17.8854 34.1 17.4988 34.1C17.1122 34.1 16.7988 34.4134 16.7988 34.8C16.7988 35.1866 17.1122 35.5 17.4988 35.5Z" fill="white"/>
    <path d="M20.3992 35.3C20.7858 35.3 21.0992 34.9866 21.0992 34.6C21.0992 34.2134 20.7858 33.9 20.3992 33.9C20.0126 33.9 19.6992 34.2134 19.6992 34.6C19.6992 34.9866 20.0126 35.3 20.3992 35.3Z" fill="white"/>
    <path d="M23.2 34.5C23.5866 34.5 23.9 34.1866 23.9 33.8C23.9 33.4134 23.5866 33.1 23.2 33.1C22.8134 33.1 22.5 33.4134 22.5 33.8C22.5 34.1866 22.8134 34.5 23.2 34.5Z" fill="white"/>
    <path d="M25.7996 33.3C26.1862 33.3 26.4996 32.9866 26.4996 32.6C26.4996 32.2134 26.1862 31.9 25.7996 31.9C25.413 31.9 25.0996 32.2134 25.0996 32.6C25.0996 32.9866 25.413 33.3 25.7996 33.3Z" fill="white"/>
    <path d="M28.2 31.6C28.5866 31.6 28.9 31.2866 28.9 30.9C28.9 30.5134 28.5866 30.2 28.2 30.2C27.8134 30.2 27.5 30.5134 27.5 30.9C27.5 31.2866 27.8134 31.6 28.2 31.6Z" fill="white"/>
    <path d="M30.2996 29.5C30.6862 29.5 30.9996 29.1866 30.9996 28.8C30.9996 28.4134 30.6862 28.1 30.2996 28.1C29.913 28.1 29.5996 28.4134 29.5996 28.8C29.5996 29.1866 29.913 29.5 30.2996 29.5Z" fill="white"/>
    <path d="M31.8992 27.2C32.2858 27.2 32.5992 26.8866 32.5992 26.5C32.5992 26.1134 32.2858 25.8 31.8992 25.8C31.5126 25.8 31.1992 26.1134 31.1992 26.5C31.1992 26.8866 31.5126 27.2 31.8992 27.2Z" fill="white"/>
    <path d="M33.1004 24.6C33.487 24.6 33.8004 24.2866 33.8004 23.9C33.8004 23.5134 33.487 23.2 33.1004 23.2C32.7138 23.2 32.4004 23.5134 32.4004 23.9C32.4004 24.2866 32.7138 24.6 33.1004 24.6Z" fill="white"/>
    <path d="M33.8992 21.8C34.2858 21.8 34.5992 21.4866 34.5992 21.1C34.5992 20.7134 34.2858 20.4 33.8992 20.4C33.5126 20.4 33.1992 20.7134 33.1992 21.1C33.1992 21.4866 33.5126 21.8 33.8992 21.8Z" fill="white"/>
    <path d="M34.2 18.8C34.5866 18.8 34.9 18.4866 34.9 18.1C34.9 17.7134 34.5866 17.4 34.2 17.4C33.8134 17.4 33.5 17.7134 33.5 18.1C33.5 18.4866 33.8134 18.8 34.2 18.8Z" fill="white"/>
    <path d="M33.8992 16C34.2858 16 34.5992 15.6866 34.5992 15.3C34.5992 14.9134 34.2858 14.6 33.8992 14.6C33.5126 14.6 33.1992 14.9134 33.1992 15.3C33.1992 15.6866 33.5126 16 33.8992 16Z" fill="white"/>
    <path d="M33.1004 13.2C33.487 13.2 33.8004 12.8866 33.8004 12.5C33.8004 12.1134 33.487 11.8 33.1004 11.8C32.7138 11.8 32.4004 12.1134 32.4004 12.5C32.4004 12.8866 32.7138 13.2 33.1004 13.2Z" fill="white"/>
    <path d="M31.8992 10.5C32.2858 10.5 32.5992 10.1866 32.5992 9.8C32.5992 9.4134 32.2858 9.1 31.8992 9.1C31.5126 9.1 31.1992 9.4134 31.1992 9.8C31.1992 10.1866 31.5126 10.5 31.8992 10.5Z" fill="white"/>
    <path d="M30.2996 8.1C30.6862 8.1 30.9996 7.7866 30.9996 7.4C30.9996 7.0134 30.6862 6.7 30.2996 6.7C29.913 6.7 29.5996 7.0134 29.5996 7.4C29.5996 7.7866 29.913 8.1 30.2996 8.1Z" fill="white"/>
    <path d="M28.2 6.1C28.5866 6.1 28.9 5.7866 28.9 5.4C28.9 5.0134 28.5866 4.7 28.2 4.7C27.8134 4.7 27.5 5.0134 27.5 5.4C27.5 5.7866 27.8134 6.1 28.2 6.1Z" fill="white"/>
    <path d="M25.7996 4.4C26.1862 4.4 26.4996 4.0866 26.4996 3.7C26.4996 3.3134 26.1862 3 25.7996 3C25.413 3 25.0996 3.3134 25.0996 3.7C25.0996 4.0866 25.413 4.4 25.7996 4.4Z" fill="white"/>
    <path d="M23.2 3.1C23.5866 3.1 23.9 2.7866 23.9 2.4C23.9 2.0134 23.5866 1.7 23.2 1.7C22.8134 1.7 22.5 2.0134 22.5 2.4C22.5 2.7866 22.8134 3.1 23.2 3.1Z" fill="white"/>
    <path d="M20.3992 2.4C20.7858 2.4 21.0992 2.0866 21.0992 1.7C21.0992 1.3134 20.7858 1 20.3992 1C20.0126 1 19.6992 1.3134 19.6992 1.7C19.6992 2.0866 20.0126 2.4 20.3992 2.4Z" fill="white"/>
    <path d="M17.4988 2.2C17.8854 2.2 18.1988 1.8866 18.1988 1.5C18.1988 1.1134 17.8854 0.799999 17.4988 0.799999C17.1122 0.799999 16.7988 1.1134 16.7988 1.5C16.7988 1.8866 17.1122 2.2 17.4988 2.2Z" fill="white"/>
    <path d="M14.6004 2.4C14.987 2.4 15.3004 2.0866 15.3004 1.7C15.3004 1.3134 14.987 1 14.6004 1C14.2138 1 13.9004 1.3134 13.9004 1.7C13.9004 2.0866 14.2138 2.4 14.6004 2.4Z" fill="white"/>
    <path d="M11.7996 3.1C12.1862 3.1 12.4996 2.7866 12.4996 2.4C12.4996 2.0134 12.1862 1.7 11.7996 1.7C11.413 1.7 11.0996 2.0134 11.0996 2.4C11.0996 2.7866 11.413 3.1 11.7996 3.1Z" fill="white"/>
    <path d="M9.2 4.4C9.5866 4.4 9.9 4.0866 9.9 3.7C9.9 3.3134 9.5866 3 9.2 3C8.8134 3 8.5 3.3134 8.5 3.7C8.5 4.0866 8.8134 4.4 9.2 4.4Z" fill="white"/>
    <path d="M6.7 6.1C7.0866 6.1 7.4 5.7866 7.4 5.4C7.4 5.0134 7.0866 4.7 6.7 4.7C6.3134 4.7 6 5.0134 6 5.4C6 5.7866 6.3134 6.1 6.7 6.1Z" fill="white"/>
    <path d="M4.7 8.1C5.0866 8.1 5.4 7.7866 5.4 7.4C5.4 7.0134 5.0866 6.7 4.7 6.7C4.3134 6.7 4 7.0134 4 7.4C4 7.7866 4.3134 8.1 4.7 8.1Z" fill="white"/>
    <path d="M3.10039 10.5C3.48699 10.5 3.80039 10.1866 3.80039 9.8C3.80039 9.4134 3.48699 9.1 3.10039 9.1C2.71379 9.1 2.40039 9.4134 2.40039 9.8C2.40039 10.1866 2.71379 10.5 3.10039 10.5Z" fill="white"/>
    <path d="M1.79961 13.2C2.18621 13.2 2.49961 12.8866 2.49961 12.5C2.49961 12.1134 2.18621 11.8 1.79961 11.8C1.41301 11.8 1.09961 12.1134 1.09961 12.5C1.09961 12.8866 1.41301 13.2 1.79961 13.2Z" fill="white"/>
    <path d="M1.10039 16C1.48699 16 1.80039 15.6866 1.80039 15.3C1.80039 14.9134 1.48699 14.6 1.10039 14.6C0.713792 14.6 0.400391 14.9134 0.400391 15.3C0.400391 15.6866 0.713792 16 1.10039 16Z" fill="white"/>
    <path d="M28.9008 16.9C28.9008 21.1 24.1008 24.4 24.1008 24.4C24.1008 24.4 19.3008 21.1 19.3008 16.9C19.3008 14.2 21.5008 12.1 24.1008 12.1C26.7008 12 28.9008 14.2 28.9008 16.9Z" fill="#FF643C" stroke="white" stroke-width="1.25" stroke-miterlimit="10"/>
    <path d="M24.0004 18.7C24.6079 18.7 25.1004 18.2075 25.1004 17.6C25.1004 16.9925 24.6079 16.5 24.0004 16.5C23.3929 16.5 22.9004 16.9925 22.9004 17.6C22.9004 18.2075 23.3929 18.7 24.0004 18.7Z" fill="#FF643C" stroke="white" stroke-width="1.25" stroke-miterlimit="10"/>
    <path d="M22.3992 22.7C22.3992 26.9 17.5992 30.2 17.5992 30.2C17.5992 30.2 12.6992 26.9 12.6992 22.7C12.6992 20 14.8992 17.9 17.4992 17.9C20.1992 17.9 22.3992 20.1 22.3992 22.7Z" fill="#FF643C" stroke="white" stroke-width="1.25" stroke-miterlimit="10"/>
    <path d="M17.5004 24.5C18.1079 24.5 18.6004 24.0075 18.6004 23.4C18.6004 22.7925 18.1079 22.3 17.5004 22.3C16.8929 22.3 16.4004 22.7925 16.4004 23.4C16.4004 24.0075 16.8929 24.5 17.5004 24.5Z" fill="#FF643C" stroke="white" stroke-width="1.25" stroke-miterlimit="10"/>
    <path d="M16.2992 12.2C16.2992 16.4 11.4992 19.7 11.4992 19.7C11.4992 19.7 6.69922 16.4 6.69922 12.2C6.69922 9.5 8.89922 7.4 11.4992 7.4C14.0992 7.4 16.2992 9.5 16.2992 12.2Z" fill="#FF643C" stroke="white" stroke-width="1.25" stroke-miterlimit="10"/>
    <path d="M11.4008 13.9C12.0083 13.9 12.5008 13.4075 12.5008 12.8C12.5008 12.1925 12.0083 11.7 11.4008 11.7C10.7933 11.7 10.3008 12.1925 10.3008 12.8C10.3008 13.4075 10.7933 13.9 11.4008 13.9Z" fill="#FF643C" stroke="white" stroke-width="1.25" stroke-miterlimit="10"/>
</svg>
