<svg width="29" height="28" viewBox="0 0 29 28" fill="none" xmlns="http://www.w3.org/2000/svg">
    <rect x="0.5" width="28" height="28" rx="14" fill="white"/>
    <path d="M20.1258 11.0562C20.1258 11.191 20.1258 11.3258 20.1258 11.4607C20.1258 15.4157 17.2485 20 11.9233 20C10.2914 20 8.78834 19.5056 7.5 18.6517C7.71472 18.6966 7.97239 18.6966 8.18712 18.6966C9.51841 18.6966 10.7638 18.2022 11.7515 17.3933C10.5061 17.3483 9.43252 16.4944 9.04601 15.2809C9.21779 15.3258 9.38957 15.3258 9.60429 15.3258C9.86196 15.3258 10.1196 15.2809 10.3773 15.236C9.04601 14.9663 8.05828 13.7528 8.05828 12.2697V12.2247C8.44479 12.4494 8.87423 12.5843 9.34663 12.5843C8.57362 12.0449 8.05828 11.1461 8.05828 10.0674C8.05828 9.52809 8.18712 8.98876 8.44479 8.53933C9.86196 10.3371 11.9663 11.5506 14.3712 11.6854C14.3282 11.4607 14.2853 11.236 14.2853 11.0112C14.2853 9.34832 15.5736 8 17.1626 8C17.9785 8 18.7515 8.35955 19.2669 8.94382C19.911 8.80899 20.5552 8.53933 21.1135 8.22472C20.8988 8.94382 20.4264 9.52809 19.8681 9.88764C20.4693 9.79775 20.9847 9.66292 21.5 9.39326C21.1994 10.1124 20.6841 10.6517 20.1258 11.0562Z" fill="black"/>
</svg>
